<svg width="320" height="147" viewBox="0 0 320 147" fill="none" xmlns="http://www.w3.org/2000/svg">
<path d="M0 8C0 3.58172 3.58172 0 8 0H312C316.418 0 320 3.58172 320 8V124C320 128.418 316.418 132 312 132H7.99999C3.58171 132 0 128.418 0 124V8Z" fill="#F8FAFC"/>
<path d="M19.052 31.014L16.364 21.2H17.624L19.738 29.614L22.146 21.2H23.448L25.786 29.614L27.928 21.2H29.188L26.444 31H25.1L22.762 22.908L20.368 31L19.052 31.014ZM30.5012 31V20.92H31.6772V25.246C31.9105 24.8167 32.2418 24.4853 32.6712 24.252C33.1005 24.0093 33.5672 23.888 34.0712 23.888C34.8738 23.888 35.5178 24.14 36.0032 24.644C36.4885 25.1387 36.7312 25.904 36.7312 26.94V31H35.5692V27.066C35.5692 25.6193 34.9858 24.896 33.8192 24.896C33.2125 24.896 32.7038 25.1153 32.2932 25.554C31.8825 25.9833 31.6772 26.5993 31.6772 27.402V31H30.5012ZM41.6349 31.168C40.9722 31.168 40.3842 31.0187 39.8709 30.72C39.3575 30.412 38.9515 29.9873 38.6529 29.446C38.3635 28.9047 38.2189 28.2653 38.2189 27.528C38.2189 26.8 38.3635 26.1653 38.6529 25.624C38.9422 25.0733 39.3435 24.6487 39.8569 24.35C40.3795 24.042 40.9815 23.888 41.6629 23.888C42.3349 23.888 42.9135 24.042 43.3989 24.35C43.8935 24.6487 44.2715 25.0453 44.5329 25.54C44.7942 26.0347 44.9249 26.5667 44.9249 27.136C44.9249 27.2387 44.9202 27.3413 44.9109 27.444C44.9109 27.5467 44.9109 27.6633 44.9109 27.794H39.3809C39.4089 28.326 39.5302 28.7693 39.7449 29.124C39.9689 29.4693 40.2442 29.7307 40.5709 29.908C40.9069 30.0853 41.2615 30.174 41.6349 30.174C42.1202 30.174 42.5262 30.062 42.8529 29.838C43.1795 29.614 43.4175 29.3107 43.5669 28.928H44.7289C44.5422 29.572 44.1829 30.1087 43.6509 30.538C43.1282 30.958 42.4562 31.168 41.6349 31.168ZM41.6349 24.882C41.0749 24.882 40.5755 25.0547 40.1369 25.4C39.7075 25.736 39.4602 26.2307 39.3949 26.884H43.7629C43.7349 26.2587 43.5202 25.7687 43.1189 25.414C42.7175 25.0593 42.2229 24.882 41.6349 24.882ZM46.4836 31V24.056H47.5476L47.6176 25.302C47.8416 24.8633 48.1636 24.518 48.5836 24.266C49.0036 24.014 49.4796 23.888 50.0116 23.888C50.8329 23.888 51.4862 24.14 51.9716 24.644C52.4662 25.1387 52.7136 25.904 52.7136 26.94V31H51.5376V27.066C51.5376 25.6193 50.9402 24.896 49.7456 24.896C49.1482 24.896 48.6489 25.1153 48.2476 25.554C47.8556 25.9833 47.6596 26.5993 47.6596 27.402V31H46.4836ZM60.9444 31C60.3097 31 59.8104 30.846 59.4464 30.538C59.0824 30.23 58.9004 29.6747 58.9004 28.872V25.05H57.6964V24.056H58.9004L59.0544 22.39H60.0764V24.056H62.1204V25.05H60.0764V28.872C60.0764 29.3107 60.165 29.6093 60.3424 29.768C60.5197 29.9173 60.8324 29.992 61.2804 29.992H62.0084V31H60.9444ZM63.6144 31V20.92H64.7904V25.246C65.0238 24.8167 65.3551 24.4853 65.7844 24.252C66.2138 24.0093 66.6804 23.888 67.1844 23.888C67.9871 23.888 68.6311 24.14 69.1164 24.644C69.6018 25.1387 69.8444 25.904 69.8444 26.94V31H68.6824V27.066C68.6824 25.6193 68.0991 24.896 66.9324 24.896C66.3258 24.896 65.8171 25.1153 65.4064 25.554C64.9958 25.9833 64.7904 26.5993 64.7904 27.402V31H63.6144ZM74.7482 31.168C74.0855 31.168 73.4975 31.0187 72.9842 30.72C72.4708 30.412 72.0648 29.9873 71.7662 29.446C71.4768 28.9047 71.3322 28.2653 71.3322 27.528C71.3322 26.8 71.4768 26.1653 71.7662 25.624C72.0555 25.0733 72.4568 24.6487 72.9702 24.35C73.4928 24.042 74.0948 23.888 74.7762 23.888C75.4482 23.888 76.0268 24.042 76.5122 24.35C77.0068 24.6487 77.3848 25.0453 77.6462 25.54C77.9075 26.0347 78.0382 26.5667 78.0382 27.136C78.0382 27.2387 78.0335 27.3413 78.0242 27.444C78.0242 27.5467 78.0242 27.6633 78.0242 27.794H72.4942C72.5222 28.326 72.6435 28.7693 72.8582 29.124C73.0822 29.4693 73.3575 29.7307 73.6842 29.908C74.0202 30.0853 74.3748 30.174 74.7482 30.174C75.2335 30.174 75.6395 30.062 75.9662 29.838C76.2928 29.614 76.5308 29.3107 76.6802 28.928H77.8422C77.6555 29.572 77.2962 30.1087 76.7642 30.538C76.2415 30.958 75.5695 31.168 74.7482 31.168ZM74.7482 24.882C74.1882 24.882 73.6888 25.0547 73.2502 25.4C72.8208 25.736 72.5735 26.2307 72.5082 26.884H76.8762C76.8482 26.2587 76.6335 25.7687 76.2322 25.414C75.8308 25.0593 75.3362 24.882 74.7482 24.882ZM86.0459 31C85.4113 31 84.9119 30.846 84.5479 30.538C84.1839 30.23 84.0019 29.6747 84.0019 28.872V25.05H82.7979V24.056H84.0019L84.1559 22.39H85.1779V24.056H87.2219V25.05H85.1779V28.872C85.1779 29.3107 85.2666 29.6093 85.4439 29.768C85.6213 29.9173 85.9339 29.992 86.3819 29.992H87.1099V31H86.0459ZM91.6886 31.168C91.0353 31.168 90.4473 31.0187 89.9246 30.72C89.4019 30.4213 88.9866 30.0013 88.6786 29.46C88.3799 28.9093 88.2306 28.2653 88.2306 27.528C88.2306 26.7907 88.3846 26.1513 88.6926 25.61C89.0006 25.0593 89.4159 24.6347 89.9386 24.336C90.4706 24.0373 91.0633 23.888 91.7166 23.888C92.3699 23.888 92.9579 24.0373 93.4806 24.336C94.0033 24.6347 94.4139 25.0593 94.7126 25.61C95.0206 26.1513 95.1746 26.7907 95.1746 27.528C95.1746 28.2653 95.0206 28.9093 94.7126 29.46C94.4046 30.0013 93.9846 30.4213 93.4526 30.72C92.9299 31.0187 92.3419 31.168 91.6886 31.168ZM91.6886 30.16C92.0899 30.16 92.4633 30.062 92.8086 29.866C93.1539 29.67 93.4339 29.376 93.6486 28.984C93.8633 28.592 93.9706 28.1067 93.9706 27.528C93.9706 26.9493 93.8633 26.464 93.6486 26.072C93.4433 25.68 93.1679 25.386 92.8226 25.19C92.4773 24.994 92.1086 24.896 91.7166 24.896C91.3153 24.896 90.9419 24.994 90.5966 25.19C90.2513 25.386 89.9713 25.68 89.7566 26.072C89.5419 26.464 89.4346 26.9493 89.4346 27.528C89.4346 28.1067 89.5419 28.592 89.7566 28.984C89.9713 29.376 90.2466 29.67 90.5826 29.866C90.9279 30.062 91.2966 30.16 91.6886 30.16ZM99.253 28.816C98.861 28.816 98.5016 28.7647 98.175 28.662L97.475 29.32C97.5776 29.3947 97.7036 29.46 97.853 29.516C98.0116 29.5627 98.2356 29.6093 98.525 29.656C98.8143 29.6933 99.2203 29.7353 99.743 29.782C100.676 29.8473 101.344 30.062 101.745 30.426C102.146 30.79 102.347 31.266 102.347 31.854C102.347 32.2553 102.235 32.638 102.011 33.002C101.796 33.366 101.46 33.6647 101.003 33.898C100.555 34.1313 99.9763 34.248 99.267 34.248C98.6416 34.248 98.0863 34.164 97.601 33.996C97.1156 33.8373 96.7376 33.59 96.467 33.254C96.1963 32.9273 96.061 32.512 96.061 32.008C96.061 31.7467 96.131 31.462 96.271 31.154C96.411 30.8553 96.6723 30.5707 97.055 30.3C96.8496 30.216 96.6723 30.1273 96.523 30.034C96.383 29.9313 96.2523 29.8193 96.131 29.698V29.376L97.321 28.2C96.7703 27.7333 96.495 27.1173 96.495 26.352C96.495 25.8947 96.6023 25.4793 96.817 25.106C97.0316 24.7327 97.3443 24.4387 97.755 24.224C98.1656 24 98.665 23.888 99.253 23.888C99.6543 23.888 100.018 23.944 100.345 24.056H102.907V24.938L101.605 24.994C101.876 25.386 102.011 25.8387 102.011 26.352C102.011 26.8093 101.899 27.2247 101.675 27.598C101.46 27.9713 101.148 28.27 100.737 28.494C100.336 28.7087 99.841 28.816 99.253 28.816ZM99.253 27.85C99.7476 27.85 100.14 27.724 100.429 27.472C100.728 27.2107 100.877 26.8373 100.877 26.352C100.877 25.876 100.728 25.512 100.429 25.26C100.14 24.9987 99.7476 24.868 99.253 24.868C98.749 24.868 98.3476 24.9987 98.049 25.26C97.7596 25.512 97.615 25.876 97.615 26.352C97.615 26.8373 97.7596 27.2107 98.049 27.472C98.3476 27.724 98.749 27.85 99.253 27.85ZM97.209 31.896C97.209 32.3627 97.405 32.708 97.797 32.932C98.189 33.1653 98.679 33.282 99.267 33.282C99.8456 33.282 100.308 33.156 100.653 32.904C101.008 32.652 101.185 32.316 101.185 31.896C101.185 31.5973 101.064 31.336 100.821 31.112C100.578 30.8973 100.13 30.7713 99.477 30.734C98.9636 30.6967 98.5203 30.65 98.147 30.594C97.7643 30.7993 97.5123 31.0187 97.391 31.252C97.2696 31.4947 97.209 31.7093 97.209 31.896ZM106.978 28.816C106.586 28.816 106.226 28.7647 105.9 28.662L105.2 29.32C105.302 29.3947 105.428 29.46 105.578 29.516C105.736 29.5627 105.96 29.6093 106.25 29.656C106.539 29.6933 106.945 29.7353 107.468 29.782C108.401 29.8473 109.068 30.062 109.47 30.426C109.871 30.79 110.072 31.266 110.072 31.854C110.072 32.2553 109.96 32.638 109.736 33.002C109.521 33.366 109.185 33.6647 108.728 33.898C108.28 34.1313 107.701 34.248 106.992 34.248C106.366 34.248 105.811 34.164 105.326 33.996C104.84 33.8373 104.462 33.59 104.192 33.254C103.921 32.9273 103.786 32.512 103.786 32.008C103.786 31.7467 103.856 31.462 103.996 31.154C104.136 30.8553 104.397 30.5707 104.78 30.3C104.574 30.216 104.397 30.1273 104.248 30.034C104.108 29.9313 103.977 29.8193 103.856 29.698V29.376L105.046 28.2C104.495 27.7333 104.22 27.1173 104.22 26.352C104.22 25.8947 104.327 25.4793 104.542 25.106C104.756 24.7327 105.069 24.4387 105.48 24.224C105.89 24 106.39 23.888 106.978 23.888C107.379 23.888 107.743 23.944 108.07 24.056H110.632V24.938L109.33 24.994C109.6 25.386 109.736 25.8387 109.736 26.352C109.736 26.8093 109.624 27.2247 109.4 27.598C109.185 27.9713 108.872 28.27 108.462 28.494C108.06 28.7087 107.566 28.816 106.978 28.816ZM106.978 27.85C107.472 27.85 107.864 27.724 108.154 27.472C108.452 27.2107 108.602 26.8373 108.602 26.352C108.602 25.876 108.452 25.512 108.154 25.26C107.864 24.9987 107.472 24.868 106.978 24.868C106.474 24.868 106.072 24.9987 105.774 25.26C105.484 25.512 105.34 25.876 105.34 26.352C105.34 26.8373 105.484 27.2107 105.774 27.472C106.072 27.724 106.474 27.85 106.978 27.85ZM104.934 31.896C104.934 32.3627 105.13 32.708 105.522 32.932C105.914 33.1653 106.404 33.282 106.992 33.282C107.57 33.282 108.032 33.156 108.378 32.904C108.732 32.652 108.91 32.316 108.91 31.896C108.91 31.5973 108.788 31.336 108.546 31.112C108.303 30.8973 107.855 30.7713 107.202 30.734C106.688 30.6967 106.245 30.65 105.872 30.594C105.489 30.7993 105.237 31.0187 105.116 31.252C104.994 31.4947 104.934 31.7093 104.934 31.896ZM111.958 31V20.92H113.134V31H111.958ZM118.184 31.168C117.521 31.168 116.933 31.0187 116.42 30.72C115.906 30.412 115.5 29.9873 115.202 29.446C114.912 28.9047 114.768 28.2653 114.768 27.528C114.768 26.8 114.912 26.1653 115.202 25.624C115.491 25.0733 115.892 24.6487 116.406 24.35C116.928 24.042 117.53 23.888 118.212 23.888C118.884 23.888 119.462 24.042 119.948 24.35C120.442 24.6487 120.82 25.0453 121.082 25.54C121.343 26.0347 121.474 26.5667 121.474 27.136C121.474 27.2387 121.469 27.3413 121.46 27.444C121.46 27.5467 121.46 27.6633 121.46 27.794H115.93C115.958 28.326 116.079 28.7693 116.294 29.124C116.518 29.4693 116.793 29.7307 117.12 29.908C117.456 30.0853 117.81 30.174 118.184 30.174C118.669 30.174 119.075 30.062 119.402 29.838C119.728 29.614 119.966 29.3107 120.116 28.928H121.278C121.091 29.572 120.732 30.1087 120.2 30.538C119.677 30.958 119.005 31.168 118.184 31.168ZM118.184 24.882C117.624 24.882 117.124 25.0547 116.686 25.4C116.256 25.736 116.009 26.2307 115.944 26.884H120.312C120.284 26.2587 120.069 25.7687 119.668 25.414C119.266 25.0593 118.772 24.882 118.184 24.882ZM130.447 31.168C129.878 31.168 129.369 31.0513 128.921 30.818C128.483 30.5847 128.147 30.258 127.913 29.838L127.801 31H126.737V20.92H127.913V25.204C128.137 24.868 128.455 24.5647 128.865 24.294C129.285 24.0233 129.817 23.888 130.461 23.888C131.152 23.888 131.754 24.0467 132.267 24.364C132.781 24.6813 133.177 25.1153 133.457 25.666C133.747 26.2167 133.891 26.842 133.891 27.542C133.891 28.242 133.747 28.8673 133.457 29.418C133.177 29.9593 132.776 30.3887 132.253 30.706C131.74 31.014 131.138 31.168 130.447 31.168ZM130.321 30.146C130.788 30.146 131.199 30.0387 131.553 29.824C131.908 29.6 132.188 29.292 132.393 28.9C132.599 28.508 132.701 28.0507 132.701 27.528C132.701 27.0053 132.599 26.548 132.393 26.156C132.188 25.764 131.908 25.4607 131.553 25.246C131.199 25.022 130.788 24.91 130.321 24.91C129.855 24.91 129.444 25.022 129.089 25.246C128.735 25.4607 128.455 25.764 128.249 26.156C128.044 26.548 127.941 27.0053 127.941 27.528C127.941 28.0507 128.044 28.508 128.249 28.9C128.455 29.292 128.735 29.6 129.089 29.824C129.444 30.0387 129.855 30.146 130.321 30.146ZM138.062 31.168C137.241 31.168 136.588 30.9207 136.103 30.426C135.617 29.922 135.375 29.152 135.375 28.116V24.056H136.551V27.99C136.551 29.4367 137.143 30.16 138.329 30.16C138.935 30.16 139.435 29.9453 139.827 29.516C140.228 29.0773 140.429 28.4567 140.429 27.654V24.056H141.605V31H140.541L140.457 29.754C140.242 30.1927 139.92 30.538 139.491 30.79C139.071 31.042 138.595 31.168 138.062 31.168ZM146.284 31C145.65 31 145.15 30.846 144.786 30.538C144.422 30.23 144.24 29.6747 144.24 28.872V25.05H143.036V24.056H144.24L144.394 22.39H145.416V24.056H147.46V25.05H145.416V28.872C145.416 29.3107 145.505 29.6093 145.682 29.768C145.86 29.9173 146.172 29.992 146.62 29.992H147.348V31H146.284ZM151.698 31C151.064 31 150.564 30.846 150.2 30.538C149.836 30.23 149.654 29.6747 149.654 28.872V25.05H148.45V24.056H149.654L149.808 22.39H150.83V24.056H152.874V25.05H150.83V28.872C150.83 29.3107 150.919 29.6093 151.096 29.768C151.274 29.9173 151.586 29.992 152.034 29.992H152.762V31H151.698ZM157.341 31.168C156.688 31.168 156.1 31.0187 155.577 30.72C155.054 30.4213 154.639 30.0013 154.331 29.46C154.032 28.9093 153.883 28.2653 153.883 27.528C153.883 26.7907 154.037 26.1513 154.345 25.61C154.653 25.0593 155.068 24.6347 155.591 24.336C156.123 24.0373 156.716 23.888 157.369 23.888C158.022 23.888 158.61 24.0373 159.133 24.336C159.656 24.6347 160.066 25.0593 160.365 25.61C160.673 26.1513 160.827 26.7907 160.827 27.528C160.827 28.2653 160.673 28.9093 160.365 29.46C160.057 30.0013 159.637 30.4213 159.105 30.72C158.582 31.0187 157.994 31.168 157.341 31.168ZM157.341 30.16C157.742 30.16 158.116 30.062 158.461 29.866C158.806 29.67 159.086 29.376 159.301 28.984C159.516 28.592 159.623 28.1067 159.623 27.528C159.623 26.9493 159.516 26.464 159.301 26.072C159.096 25.68 158.82 25.386 158.475 25.19C158.13 24.994 157.761 24.896 157.369 24.896C156.968 24.896 156.594 24.994 156.249 25.19C155.904 25.386 155.624 25.68 155.409 26.072C155.194 26.464 155.087 26.9493 155.087 27.528C155.087 28.1067 155.194 28.592 155.409 28.984C155.624 29.376 155.899 29.67 156.235 29.866C156.58 30.062 156.949 30.16 157.341 30.16ZM162.462 31V24.056H163.526L163.596 25.302C163.82 24.8633 164.142 24.518 164.562 24.266C164.982 24.014 165.458 23.888 165.99 23.888C166.811 23.888 167.465 24.14 167.95 24.644C168.445 25.1387 168.692 25.904 168.692 26.94V31H167.516V27.066C167.516 25.6193 166.919 24.896 165.724 24.896C165.127 24.896 164.627 25.1153 164.226 25.554C163.834 25.9833 163.638 26.5993 163.638 27.402V31H162.462ZM174.893 22.516C174.66 22.516 174.464 22.4413 174.305 22.292C174.156 22.1333 174.081 21.9373 174.081 21.704C174.081 21.48 174.156 21.2933 174.305 21.144C174.464 20.9947 174.66 20.92 174.893 20.92C175.117 20.92 175.308 20.9947 175.467 21.144C175.626 21.2933 175.705 21.48 175.705 21.704C175.705 21.9373 175.626 22.1333 175.467 22.292C175.308 22.4413 175.117 22.516 174.893 22.516ZM174.305 31V24.056H175.481V31H174.305ZM180.189 31.168C179.358 31.168 178.667 30.958 178.117 30.538C177.566 30.118 177.244 29.5487 177.151 28.83H178.355C178.429 29.194 178.621 29.5113 178.929 29.782C179.246 30.0433 179.671 30.174 180.203 30.174C180.697 30.174 181.061 30.0713 181.295 29.866C181.528 29.6513 181.645 29.3993 181.645 29.11C181.645 28.69 181.491 28.41 181.183 28.27C180.884 28.13 180.459 28.004 179.909 27.892C179.535 27.8173 179.162 27.71 178.789 27.57C178.415 27.43 178.103 27.234 177.851 26.982C177.599 26.7207 177.473 26.38 177.473 25.96C177.473 25.3533 177.697 24.8587 178.145 24.476C178.602 24.084 179.218 23.888 179.993 23.888C180.73 23.888 181.332 24.0747 181.799 24.448C182.275 24.812 182.55 25.3347 182.625 26.016H181.463C181.416 25.6613 181.262 25.386 181.001 25.19C180.749 24.9847 180.408 24.882 179.979 24.882C179.559 24.882 179.232 24.9707 178.999 25.148C178.775 25.3253 178.663 25.5587 178.663 25.848C178.663 26.128 178.807 26.3473 179.097 26.506C179.395 26.6647 179.797 26.8 180.301 26.912C180.73 27.0053 181.136 27.122 181.519 27.262C181.911 27.3927 182.228 27.5933 182.471 27.864C182.723 28.1253 182.849 28.508 182.849 29.012C182.858 29.6373 182.62 30.1553 182.135 30.566C181.659 30.9673 181.01 31.168 180.189 31.168ZM191.356 31.168C190.693 31.168 190.105 31.0187 189.592 30.72C189.078 30.412 188.672 29.9873 188.374 29.446C188.084 28.9047 187.94 28.2653 187.94 27.528C187.94 26.8 188.084 26.1653 188.374 25.624C188.663 25.0733 189.064 24.6487 189.578 24.35C190.1 24.042 190.702 23.888 191.384 23.888C192.056 23.888 192.634 24.042 193.12 24.35C193.614 24.6487 193.992 25.0453 194.254 25.54C194.515 26.0347 194.646 26.5667 194.646 27.136C194.646 27.2387 194.641 27.3413 194.632 27.444C194.632 27.5467 194.632 27.6633 194.632 27.794H189.102C189.13 28.326 189.251 28.7693 189.466 29.124C189.69 29.4693 189.965 29.7307 190.292 29.908C190.628 30.0853 190.982 30.174 191.356 30.174C191.841 30.174 192.247 30.062 192.574 29.838C192.9 29.614 193.138 29.3107 193.288 28.928H194.45C194.263 29.572 193.904 30.1087 193.372 30.538C192.849 30.958 192.177 31.168 191.356 31.168ZM191.356 24.882C190.796 24.882 190.296 25.0547 189.858 25.4C189.428 25.736 189.181 26.2307 189.116 26.884H193.484C193.456 26.2587 193.241 25.7687 192.84 25.414C192.438 25.0593 191.944 24.882 191.356 24.882ZM196.204 31V24.056H197.268L197.338 25.302C197.562 24.8633 197.884 24.518 198.304 24.266C198.724 24.014 199.2 23.888 199.732 23.888C200.554 23.888 201.207 24.14 201.692 24.644C202.187 25.1387 202.434 25.904 202.434 26.94V31H201.258V27.066C201.258 25.6193 200.661 24.896 199.466 24.896C198.869 24.896 198.37 25.1153 197.968 25.554C197.576 25.9833 197.38 26.5993 197.38 27.402V31H196.204ZM206.526 31.168C205.947 31.168 205.467 31.07 205.084 30.874C204.701 30.678 204.417 30.4167 204.23 30.09C204.043 29.7633 203.95 29.4087 203.95 29.026C203.95 28.3167 204.221 27.7707 204.762 27.388C205.303 27.0053 206.041 26.814 206.974 26.814H208.85V26.73C208.85 26.1233 208.691 25.666 208.374 25.358C208.057 25.0407 207.632 24.882 207.1 24.882C206.643 24.882 206.246 24.9987 205.91 25.232C205.583 25.456 205.378 25.7873 205.294 26.226H204.09C204.137 25.722 204.305 25.2973 204.594 24.952C204.893 24.6067 205.261 24.3453 205.7 24.168C206.139 23.9813 206.605 23.888 207.1 23.888C208.071 23.888 208.799 24.1493 209.284 24.672C209.779 25.1853 210.026 25.8713 210.026 26.73V31H208.976L208.906 29.754C208.71 30.146 208.421 30.482 208.038 30.762C207.665 31.0327 207.161 31.168 206.526 31.168ZM206.708 30.174C207.156 30.174 207.539 30.0573 207.856 29.824C208.183 29.5907 208.43 29.2873 208.598 28.914C208.766 28.5407 208.85 28.1487 208.85 27.738V27.724H207.072C206.381 27.724 205.891 27.8453 205.602 28.088C205.322 28.3213 205.182 28.6153 205.182 28.97C205.182 29.334 205.313 29.628 205.574 29.852C205.845 30.0667 206.223 30.174 206.708 30.174ZM215.5 31.168C214.931 31.168 214.422 31.0513 213.974 30.818C213.536 30.5847 213.2 30.258 212.966 29.838L212.854 31H211.79V20.92H212.966V25.204C213.19 24.868 213.508 24.5647 213.918 24.294C214.338 24.0233 214.87 23.888 215.514 23.888C216.205 23.888 216.807 24.0467 217.32 24.364C217.834 24.6813 218.23 25.1153 218.51 25.666C218.8 26.2167 218.944 26.842 218.944 27.542C218.944 28.242 218.8 28.8673 218.51 29.418C218.23 29.9593 217.829 30.3887 217.306 30.706C216.793 31.014 216.191 31.168 215.5 31.168ZM215.374 30.146C215.841 30.146 216.252 30.0387 216.606 29.824C216.961 29.6 217.241 29.292 217.446 28.9C217.652 28.508 217.754 28.0507 217.754 27.528C217.754 27.0053 217.652 26.548 217.446 26.156C217.241 25.764 216.961 25.4607 216.606 25.246C216.252 25.022 215.841 24.91 215.374 24.91C214.908 24.91 214.497 25.022 214.142 25.246C213.788 25.4607 213.508 25.764 213.302 26.156C213.097 26.548 212.994 27.0053 212.994 27.528C212.994 28.0507 213.097 28.508 213.302 28.9C213.508 29.292 213.788 29.6 214.142 29.824C214.497 30.0387 214.908 30.146 215.374 30.146ZM220.581 31V20.92H221.757V31H220.581ZM226.807 31.168C226.144 31.168 225.556 31.0187 225.043 30.72C224.529 30.412 224.123 29.9873 223.825 29.446C223.535 28.9047 223.391 28.2653 223.391 27.528C223.391 26.8 223.535 26.1653 223.825 25.624C224.114 25.0733 224.515 24.6487 225.029 24.35C225.551 24.042 226.153 23.888 226.835 23.888C227.507 23.888 228.085 24.042 228.571 24.35C229.065 24.6487 229.443 25.0453 229.705 25.54C229.966 26.0347 230.097 26.5667 230.097 27.136C230.097 27.2387 230.092 27.3413 230.083 27.444C230.083 27.5467 230.083 27.6633 230.083 27.794H224.553C224.581 28.326 224.702 28.7693 224.917 29.124C225.141 29.4693 225.416 29.7307 225.743 29.908C226.079 30.0853 226.433 30.174 226.807 30.174C227.292 30.174 227.698 30.062 228.025 29.838C228.351 29.614 228.589 29.3107 228.739 28.928H229.901C229.714 29.572 229.355 30.1087 228.823 30.538C228.3 30.958 227.628 31.168 226.807 31.168ZM226.807 24.882C226.247 24.882 225.747 25.0547 225.309 25.4C224.879 25.736 224.632 26.2307 224.567 26.884H228.935C228.907 26.2587 228.692 25.7687 228.291 25.414C227.889 25.0593 227.395 24.882 226.807 24.882ZM234.805 31.168C234.115 31.168 233.508 31.0093 232.985 30.692C232.472 30.3747 232.071 29.9407 231.781 29.39C231.501 28.8393 231.361 28.214 231.361 27.514C231.361 26.814 231.506 26.1933 231.795 25.652C232.085 25.1013 232.486 24.672 232.999 24.364C233.513 24.0467 234.119 23.888 234.819 23.888C235.389 23.888 235.893 24.0047 236.331 24.238C236.77 24.4713 237.111 24.798 237.353 25.218V20.92H238.529V31H237.465L237.353 29.852C237.129 30.188 236.807 30.4913 236.387 30.762C235.967 31.0327 235.44 31.168 234.805 31.168ZM234.931 30.146C235.398 30.146 235.809 30.0387 236.163 29.824C236.527 29.6 236.807 29.292 237.003 28.9C237.209 28.508 237.311 28.0507 237.311 27.528C237.311 27.0053 237.209 26.548 237.003 26.156C236.807 25.764 236.527 25.4607 236.163 25.246C235.809 25.022 235.398 24.91 234.931 24.91C234.474 24.91 234.063 25.022 233.699 25.246C233.345 25.4607 233.065 25.764 232.859 26.156C232.663 26.548 232.565 27.0053 232.565 27.528C232.565 28.0507 232.663 28.508 232.859 28.9C233.065 29.292 233.345 29.6 233.699 29.824C234.063 30.0387 234.474 30.146 234.931 30.146ZM239.508 32.666L240.32 29.572H241.538L240.32 32.666H239.508ZM249.384 31C248.749 31 248.25 30.846 247.886 30.538C247.522 30.23 247.34 29.6747 247.34 28.872V25.05H246.136V24.056H247.34L247.494 22.39H248.516V24.056H250.56V25.05H248.516V28.872C248.516 29.3107 248.604 29.6093 248.782 29.768C248.959 29.9173 249.272 29.992 249.72 29.992H250.448V31H249.384ZM252.054 31V20.92H253.23V25.246C253.463 24.8167 253.795 24.4853 254.224 24.252C254.653 24.0093 255.12 23.888 255.624 23.888C256.427 23.888 257.071 24.14 257.556 24.644C258.041 25.1387 258.284 25.904 258.284 26.94V31H257.122V27.066C257.122 25.6193 256.539 24.896 255.372 24.896C254.765 24.896 254.257 25.1153 253.846 25.554C253.435 25.9833 253.23 26.5993 253.23 27.402V31H252.054ZM263.188 31.168C262.525 31.168 261.937 31.0187 261.424 30.72C260.91 30.412 260.504 29.9873 260.206 29.446C259.916 28.9047 259.772 28.2653 259.772 27.528C259.772 26.8 259.916 26.1653 260.206 25.624C260.495 25.0733 260.896 24.6487 261.41 24.35C261.932 24.042 262.534 23.888 263.216 23.888C263.888 23.888 264.466 24.042 264.952 24.35C265.446 24.6487 265.824 25.0453 266.086 25.54C266.347 26.0347 266.478 26.5667 266.478 27.136C266.478 27.2387 266.473 27.3413 266.464 27.444C266.464 27.5467 266.464 27.6633 266.464 27.794H260.934C260.962 28.326 261.083 28.7693 261.298 29.124C261.522 29.4693 261.797 29.7307 262.124 29.908C262.46 30.0853 262.814 30.174 263.188 30.174C263.673 30.174 264.079 30.062 264.406 29.838C264.732 29.614 264.97 29.3107 265.12 28.928H266.282C266.095 29.572 265.736 30.1087 265.204 30.538C264.681 30.958 264.009 31.168 263.188 31.168ZM263.188 24.882C262.628 24.882 262.128 25.0547 261.69 25.4C261.26 25.736 261.013 26.2307 260.948 26.884H265.316C265.288 26.2587 265.073 25.7687 264.672 25.414C264.27 25.0593 263.776 24.882 263.188 24.882ZM16.966 54.08V44.056H18.03L18.142 45.204C18.366 44.868 18.6833 44.5647 19.094 44.294C19.514 44.0233 20.046 43.888 20.69 43.888C21.3807 43.888 21.9827 44.0467 22.496 44.364C23.0093 44.6813 23.406 45.1153 23.686 45.666C23.9753 46.2167 24.12 46.842 24.12 47.542C24.12 48.242 23.9753 48.8673 23.686 49.418C23.406 49.9593 23.0047 50.3887 22.482 50.706C21.9687 51.014 21.3667 51.168 20.676 51.168C20.1067 51.168 19.598 51.0513 19.15 50.818C18.7113 50.5847 18.3753 50.258 18.142 49.838V54.08H16.966ZM20.55 50.146C21.0167 50.146 21.4273 50.0387 21.782 49.824C22.1367 49.6 22.4167 49.292 22.622 48.9C22.8273 48.508 22.93 48.0507 22.93 47.528C22.93 47.0053 22.8273 46.548 22.622 46.156C22.4167 45.764 22.1367 45.4607 21.782 45.246C21.4273 45.022 21.0167 44.91 20.55 44.91C20.0833 44.91 19.6727 45.022 19.318 45.246C18.9633 45.4607 18.6833 45.764 18.478 46.156C18.2727 46.548 18.17 47.0053 18.17 47.528C18.17 48.0507 18.2727 48.508 18.478 48.9C18.6833 49.292 18.9633 49.6 19.318 49.824C19.6727 50.0387 20.0833 50.146 20.55 50.146ZM25.757 51V44.056H26.821L26.919 45.386C27.1337 44.9287 27.4603 44.5647 27.899 44.294C28.3377 44.0233 28.879 43.888 29.523 43.888V45.12H29.201C28.7903 45.12 28.4123 45.1947 28.067 45.344C27.7217 45.484 27.4463 45.7267 27.241 46.072C27.0357 46.4173 26.933 46.8933 26.933 47.5V51H25.757ZM33.7052 51.168C33.0425 51.168 32.4545 51.0187 31.9412 50.72C31.4279 50.412 31.0219 49.9873 30.7232 49.446C30.4339 48.9047 30.2892 48.2653 30.2892 47.528C30.2892 46.8 30.4339 46.1653 30.7232 45.624C31.0125 45.0733 31.4139 44.6487 31.9272 44.35C32.4499 44.042 33.0519 43.888 33.7332 43.888C34.4052 43.888 34.9839 44.042 35.4692 44.35C35.9639 44.6487 36.3419 45.0453 36.6032 45.54C36.8645 46.0347 36.9952 46.5667 36.9952 47.136C36.9952 47.2387 36.9905 47.3413 36.9812 47.444C36.9812 47.5467 36.9812 47.6633 36.9812 47.794H31.4512C31.4792 48.326 31.6005 48.7693 31.8152 49.124C32.0392 49.4693 32.3145 49.7307 32.6412 49.908C32.9772 50.0853 33.3319 50.174 33.7052 50.174C34.1905 50.174 34.5965 50.062 34.9232 49.838C35.2499 49.614 35.4879 49.3107 35.6372 48.928H36.7992C36.6125 49.572 36.2532 50.1087 35.7212 50.538C35.1985 50.958 34.5265 51.168 33.7052 51.168ZM33.7052 44.882C33.1452 44.882 32.6459 45.0547 32.2072 45.4C31.7779 45.736 31.5305 46.2307 31.4652 46.884H35.8332C35.8052 46.2587 35.5905 45.7687 35.1892 45.414C34.7879 45.0593 34.2932 44.882 33.7052 44.882ZM38.9319 51V45.05H37.8819V44.056H38.9319V42.852C38.9319 42.18 39.0999 41.69 39.4359 41.382C39.7719 41.074 40.2619 40.92 40.9059 40.92H41.6059V41.928H41.0879C40.7332 41.928 40.4812 42.0027 40.3319 42.152C40.1826 42.292 40.1079 42.5347 40.1079 42.88V44.056H44.4199V51H43.2439V45.05H40.1079V51H38.9319ZM43.8459 42.726C43.6219 42.726 43.4306 42.6513 43.2719 42.502C43.1132 42.3433 43.0339 42.1473 43.0339 41.914C43.0339 41.69 43.1132 41.5033 43.2719 41.354C43.4306 41.2047 43.6219 41.13 43.8459 41.13C44.0792 41.13 44.2706 41.2047 44.4199 41.354C44.5786 41.5033 44.6579 41.69 44.6579 41.914C44.6579 42.1473 44.5786 42.3433 44.4199 42.502C44.2706 42.6513 44.0792 42.726 43.8459 42.726ZM45.7973 51L48.2053 47.528L45.7973 44.056H47.0713L49.0173 46.926L50.9773 44.056H52.2373L49.8293 47.528L52.2373 51H50.9773L49.0173 48.13L47.0713 51H45.7973ZM57.175 51V44.056H58.239L58.309 45.302C58.533 44.8633 58.855 44.518 59.275 44.266C59.695 44.014 60.171 43.888 60.703 43.888C61.5243 43.888 62.1777 44.14 62.663 44.644C63.1577 45.1387 63.405 45.904 63.405 46.94V51H62.229V47.066C62.229 45.6193 61.6317 44.896 60.437 44.896C59.8397 44.896 59.3403 45.1153 58.939 45.554C58.547 45.9833 58.351 46.5993 58.351 47.402V51H57.175ZM67.7207 51.168C66.8994 51.168 66.246 50.9207 65.7607 50.426C65.2754 49.922 65.0327 49.152 65.0327 48.116V44.056H66.2087V47.99C66.2087 49.4367 66.8014 50.16 67.9867 50.16C68.5934 50.16 69.0927 49.9453 69.4847 49.516C69.886 49.0773 70.0867 48.4567 70.0867 47.654V44.056H71.2627V51H70.1987L70.1147 49.754C69.9 50.1927 69.578 50.538 69.1487 50.79C68.7287 51.042 68.2527 51.168 67.7207 51.168ZM73.1984 51V44.056H74.2624L74.3464 45.064C74.5704 44.6907 74.8691 44.4013 75.2424 44.196C75.6158 43.9907 76.0358 43.888 76.5024 43.888C77.0531 43.888 77.5244 44 77.9164 44.224C78.3178 44.448 78.6258 44.7887 78.8404 45.246C79.0831 44.826 79.4144 44.4947 79.8344 44.252C80.2638 44.0093 80.7258 43.888 81.2204 43.888C82.0511 43.888 82.7138 44.14 83.2084 44.644C83.7031 45.1387 83.9504 45.904 83.9504 46.94V51H82.7884V47.066C82.7884 46.3473 82.6438 45.806 82.3544 45.442C82.0651 45.078 81.6498 44.896 81.1084 44.896C80.5484 44.896 80.0818 45.1153 79.7084 45.554C79.3444 45.9833 79.1624 46.5993 79.1624 47.402V51H77.9864V47.066C77.9864 46.3473 77.8418 45.806 77.5524 45.442C77.2631 45.078 76.8478 44.896 76.3064 44.896C75.7558 44.896 75.2938 45.1153 74.9204 45.554C74.5564 45.9833 74.3744 46.5993 74.3744 47.402V51H73.1984ZM89.4319 51.168C88.8625 51.168 88.3539 51.0513 87.9059 50.818C87.4672 50.5847 87.1312 50.258 86.8979 49.838L86.7859 51H85.7219V40.92H86.8979V45.204C87.1219 44.868 87.4392 44.5647 87.8499 44.294C88.2699 44.0233 88.8019 43.888 89.4459 43.888C90.1365 43.888 90.7385 44.0467 91.2519 44.364C91.7652 44.6813 92.1619 45.1153 92.4419 45.666C92.7312 46.2167 92.8759 46.842 92.8759 47.542C92.8759 48.242 92.7312 48.8673 92.4419 49.418C92.1619 49.9593 91.7605 50.3887 91.2379 50.706C90.7245 51.014 90.1225 51.168 89.4319 51.168ZM89.3059 50.146C89.7725 50.146 90.1832 50.0387 90.5379 49.824C90.8925 49.6 91.1725 49.292 91.3779 48.9C91.5832 48.508 91.6859 48.0507 91.6859 47.528C91.6859 47.0053 91.5832 46.548 91.3779 46.156C91.1725 45.764 90.8925 45.4607 90.5379 45.246C90.1832 45.022 89.7725 44.91 89.3059 44.91C88.8392 44.91 88.4285 45.022 88.0739 45.246C87.7192 45.4607 87.4392 45.764 87.2339 46.156C87.0285 46.548 86.9259 47.0053 86.9259 47.528C86.9259 48.0507 87.0285 48.508 87.2339 48.9C87.4392 49.292 87.7192 49.6 88.0739 49.824C88.4285 50.0387 88.8392 50.146 89.3059 50.146ZM97.6349 51.168C96.9722 51.168 96.3842 51.0187 95.8709 50.72C95.3575 50.412 94.9515 49.9873 94.6529 49.446C94.3635 48.9047 94.2189 48.2653 94.2189 47.528C94.2189 46.8 94.3635 46.1653 94.6529 45.624C94.9422 45.0733 95.3435 44.6487 95.8569 44.35C96.3795 44.042 96.9815 43.888 97.6629 43.888C98.3349 43.888 98.9135 44.042 99.3989 44.35C99.8935 44.6487 100.272 45.0453 100.533 45.54C100.794 46.0347 100.925 46.5667 100.925 47.136C100.925 47.2387 100.92 47.3413 100.911 47.444C100.911 47.5467 100.911 47.6633 100.911 47.794H95.3809C95.4089 48.326 95.5302 48.7693 95.7449 49.124C95.9689 49.4693 96.2442 49.7307 96.5709 49.908C96.9069 50.0853 97.2615 50.174 97.6349 50.174C98.1202 50.174 98.5262 50.062 98.8529 49.838C99.1795 49.614 99.4175 49.3107 99.5669 48.928H100.729C100.542 49.572 100.183 50.1087 99.6509 50.538C99.1282 50.958 98.4562 51.168 97.6349 51.168ZM97.6349 44.882C97.0749 44.882 96.5755 45.0547 96.1369 45.4C95.7075 45.736 95.4602 46.2307 95.3949 46.884H99.7629C99.7349 46.2587 99.5202 45.7687 99.1189 45.414C98.7175 45.0593 98.2229 44.882 97.6349 44.882ZM102.484 51V44.056H103.548L103.646 45.386C103.86 44.9287 104.187 44.5647 104.626 44.294C105.064 44.0233 105.606 43.888 106.25 43.888V45.12H105.928C105.517 45.12 105.139 45.1947 104.794 45.344C104.448 45.484 104.173 45.7267 103.968 46.072C103.762 46.4173 103.66 46.8933 103.66 47.5V51H102.484ZM111.989 42.516C111.755 42.516 111.559 42.4413 111.401 42.292C111.251 42.1333 111.177 41.9373 111.177 41.704C111.177 41.48 111.251 41.2933 111.401 41.144C111.559 40.9947 111.755 40.92 111.989 40.92C112.213 40.92 112.404 40.9947 112.563 41.144C112.721 41.2933 112.801 41.48 112.801 41.704C112.801 41.9373 112.721 42.1333 112.563 42.292C112.404 42.4413 112.213 42.516 111.989 42.516ZM111.401 51V44.056H112.577V51H111.401ZM117.284 51.168C116.454 51.168 115.763 50.958 115.212 50.538C114.662 50.118 114.34 49.5487 114.246 48.83H115.45C115.525 49.194 115.716 49.5113 116.024 49.782C116.342 50.0433 116.766 50.174 117.298 50.174C117.793 50.174 118.157 50.0713 118.39 49.866C118.624 49.6513 118.74 49.3993 118.74 49.11C118.74 48.69 118.586 48.41 118.278 48.27C117.98 48.13 117.555 48.004 117.004 47.892C116.631 47.8173 116.258 47.71 115.884 47.57C115.511 47.43 115.198 47.234 114.946 46.982C114.694 46.7207 114.568 46.38 114.568 45.96C114.568 45.3533 114.792 44.8587 115.24 44.476C115.698 44.084 116.314 43.888 117.088 43.888C117.826 43.888 118.428 44.0747 118.894 44.448C119.37 44.812 119.646 45.3347 119.72 46.016H118.558C118.512 45.6613 118.358 45.386 118.096 45.19C117.844 44.9847 117.504 44.882 117.074 44.882C116.654 44.882 116.328 44.9707 116.094 45.148C115.87 45.3253 115.758 45.5587 115.758 45.848C115.758 46.128 115.903 46.3473 116.192 46.506C116.491 46.6647 116.892 46.8 117.396 46.912C117.826 47.0053 118.232 47.122 118.614 47.262C119.006 47.3927 119.324 47.5933 119.566 47.864C119.818 48.1253 119.944 48.508 119.944 49.012C119.954 49.6373 119.716 50.1553 119.23 50.566C118.754 50.9673 118.106 51.168 117.284 51.168ZM127.639 51.168C127.061 51.168 126.58 51.07 126.197 50.874C125.815 50.678 125.53 50.4167 125.343 50.09C125.157 49.7633 125.063 49.4087 125.063 49.026C125.063 48.3167 125.334 47.7707 125.875 47.388C126.417 47.0053 127.154 46.814 128.087 46.814H129.963V46.73C129.963 46.1233 129.805 45.666 129.487 45.358C129.17 45.0407 128.745 44.882 128.213 44.882C127.756 44.882 127.359 44.9987 127.023 45.232C126.697 45.456 126.491 45.7873 126.407 46.226H125.203C125.25 45.722 125.418 45.2973 125.707 44.952C126.006 44.6067 126.375 44.3453 126.813 44.168C127.252 43.9813 127.719 43.888 128.213 43.888C129.184 43.888 129.912 44.1493 130.397 44.672C130.892 45.1853 131.139 45.8713 131.139 46.73V51H130.089L130.019 49.754C129.823 50.146 129.534 50.482 129.151 50.762C128.778 51.0327 128.274 51.168 127.639 51.168ZM127.821 50.174C128.269 50.174 128.652 50.0573 128.969 49.824C129.296 49.5907 129.543 49.2873 129.711 48.914C129.879 48.5407 129.963 48.1487 129.963 47.738V47.724H128.185C127.495 47.724 127.005 47.8453 126.715 48.088C126.435 48.3213 126.295 48.6153 126.295 48.97C126.295 49.334 126.426 49.628 126.687 49.852C126.958 50.0667 127.336 50.174 127.821 50.174ZM135.438 51.168C134.616 51.168 133.963 50.9207 133.478 50.426C132.992 49.922 132.75 49.152 132.75 48.116V44.056H133.926V47.99C133.926 49.4367 134.518 50.16 135.704 50.16C136.31 50.16 136.81 49.9453 137.202 49.516C137.603 49.0773 137.804 48.4567 137.804 47.654V44.056H138.98V51H137.916L137.832 49.754C137.617 50.1927 137.295 50.538 136.866 50.79C136.446 51.042 135.97 51.168 135.438 51.168ZM143.659 51C143.025 51 142.525 50.846 142.161 50.538C141.797 50.23 141.615 49.6747 141.615 48.872V45.05H140.411V44.056H141.615L141.769 42.39H142.791V44.056H144.835V45.05H142.791V48.872C142.791 49.3107 142.88 49.6093 143.057 49.768C143.235 49.9173 143.547 49.992 143.995 49.992H144.723V51H143.659ZM149.302 51.168C148.649 51.168 148.061 51.0187 147.538 50.72C147.015 50.4213 146.6 50.0013 146.292 49.46C145.993 48.9093 145.844 48.2653 145.844 47.528C145.844 46.7907 145.998 46.1513 146.306 45.61C146.614 45.0593 147.029 44.6347 147.552 44.336C148.084 44.0373 148.677 43.888 149.33 43.888C149.983 43.888 150.571 44.0373 151.094 44.336C151.617 44.6347 152.027 45.0593 152.326 45.61C152.634 46.1513 152.788 46.7907 152.788 47.528C152.788 48.2653 152.634 48.9093 152.326 49.46C152.018 50.0013 151.598 50.4213 151.066 50.72C150.543 51.0187 149.955 51.168 149.302 51.168ZM149.302 50.16C149.703 50.16 150.077 50.062 150.422 49.866C150.767 49.67 151.047 49.376 151.262 48.984C151.477 48.592 151.584 48.1067 151.584 47.528C151.584 46.9493 151.477 46.464 151.262 46.072C151.057 45.68 150.781 45.386 150.436 45.19C150.091 44.994 149.722 44.896 149.33 44.896C148.929 44.896 148.555 44.994 148.21 45.19C147.865 45.386 147.585 45.68 147.37 46.072C147.155 46.464 147.048 46.9493 147.048 47.528C147.048 48.1067 147.155 48.592 147.37 48.984C147.585 49.376 147.86 49.67 148.196 49.866C148.541 50.062 148.91 50.16 149.302 50.16ZM154.423 51V44.056H155.487L155.571 45.064C155.795 44.6907 156.094 44.4013 156.467 44.196C156.84 43.9907 157.26 43.888 157.727 43.888C158.278 43.888 158.749 44 159.141 44.224C159.542 44.448 159.85 44.7887 160.065 45.246C160.308 44.826 160.639 44.4947 161.059 44.252C161.488 44.0093 161.95 43.888 162.445 43.888C163.276 43.888 163.938 44.14 164.433 44.644C164.928 45.1387 165.175 45.904 165.175 46.94V51H164.013V47.066C164.013 46.3473 163.868 45.806 163.579 45.442C163.29 45.078 162.874 44.896 162.333 44.896C161.773 44.896 161.306 45.1153 160.933 45.554C160.569 45.9833 160.387 46.5993 160.387 47.402V51H159.211V47.066C159.211 46.3473 159.066 45.806 158.777 45.442C158.488 45.078 158.072 44.896 157.531 44.896C156.98 44.896 156.518 45.1153 156.145 45.554C155.781 45.9833 155.599 46.5993 155.599 47.402V51H154.423ZM169.256 51.168C168.678 51.168 168.197 51.07 167.814 50.874C167.432 50.678 167.147 50.4167 166.96 50.09C166.774 49.7633 166.68 49.4087 166.68 49.026C166.68 48.3167 166.951 47.7707 167.492 47.388C168.034 47.0053 168.771 46.814 169.704 46.814H171.58V46.73C171.58 46.1233 171.422 45.666 171.104 45.358C170.787 45.0407 170.362 44.882 169.83 44.882C169.373 44.882 168.976 44.9987 168.64 45.232C168.314 45.456 168.108 45.7873 168.024 46.226H166.82C166.867 45.722 167.035 45.2973 167.324 44.952C167.623 44.6067 167.992 44.3453 168.43 44.168C168.869 43.9813 169.336 43.888 169.83 43.888C170.801 43.888 171.529 44.1493 172.014 44.672C172.509 45.1853 172.756 45.8713 172.756 46.73V51H171.706L171.636 49.754C171.44 50.146 171.151 50.482 170.768 50.762C170.395 51.0327 169.891 51.168 169.256 51.168ZM169.438 50.174C169.886 50.174 170.269 50.0573 170.586 49.824C170.913 49.5907 171.16 49.2873 171.328 48.914C171.496 48.5407 171.58 48.1487 171.58 47.738V47.724H169.802C169.112 47.724 168.622 47.8453 168.332 48.088C168.052 48.3213 167.912 48.6153 167.912 48.97C167.912 49.334 168.043 49.628 168.304 49.852C168.575 50.0667 168.953 50.174 169.438 50.174ZM177.073 51C176.439 51 175.939 50.846 175.575 50.538C175.211 50.23 175.029 49.6747 175.029 48.872V45.05H173.825V44.056H175.029L175.183 42.39H176.205V44.056H178.249V45.05H176.205V48.872C176.205 49.3107 176.294 49.6093 176.471 49.768C176.649 49.9173 176.961 49.992 177.409 49.992H178.137V51H177.073ZM180.457 42.516C180.224 42.516 180.028 42.4413 179.869 42.292C179.72 42.1333 179.645 41.9373 179.645 41.704C179.645 41.48 179.72 41.2933 179.869 41.144C180.028 40.9947 180.224 40.92 180.457 40.92C180.681 40.92 180.873 40.9947 181.031 41.144C181.19 41.2933 181.269 41.48 181.269 41.704C181.269 41.9373 181.19 42.1333 181.031 42.292C180.873 42.4413 180.681 42.516 180.457 42.516ZM179.869 51V44.056H181.045V51H179.869ZM186.285 51.168C185.622 51.168 185.025 51.0187 184.493 50.72C183.97 50.412 183.555 49.9873 183.247 49.446C182.948 48.8953 182.799 48.256 182.799 47.528C182.799 46.8 182.948 46.1653 183.247 45.624C183.555 45.0733 183.97 44.6487 184.493 44.35C185.025 44.042 185.622 43.888 186.285 43.888C187.106 43.888 187.797 44.1027 188.357 44.532C188.926 44.9613 189.286 45.5353 189.435 46.254H188.231C188.138 45.8247 187.909 45.4933 187.545 45.26C187.181 45.0173 186.756 44.896 186.271 44.896C185.879 44.896 185.51 44.994 185.165 45.19C184.82 45.386 184.54 45.68 184.325 46.072C184.11 46.464 184.003 46.9493 184.003 47.528C184.003 48.1067 184.11 48.592 184.325 48.984C184.54 49.376 184.82 49.6747 185.165 49.88C185.51 50.076 185.879 50.174 186.271 50.174C186.756 50.174 187.181 50.0573 187.545 49.824C187.909 49.5813 188.138 49.2407 188.231 48.802H189.435C189.295 49.502 188.94 50.0713 188.371 50.51C187.802 50.9487 187.106 51.168 186.285 51.168ZM193.387 51.168C192.809 51.168 192.328 51.07 191.945 50.874C191.563 50.678 191.278 50.4167 191.091 50.09C190.905 49.7633 190.811 49.4087 190.811 49.026C190.811 48.3167 191.082 47.7707 191.623 47.388C192.165 47.0053 192.902 46.814 193.835 46.814H195.711V46.73C195.711 46.1233 195.553 45.666 195.235 45.358C194.918 45.0407 194.493 44.882 193.961 44.882C193.504 44.882 193.107 44.9987 192.771 45.232C192.445 45.456 192.239 45.7873 192.155 46.226H190.951C190.998 45.722 191.166 45.2973 191.455 44.952C191.754 44.6067 192.123 44.3453 192.561 44.168C193 43.9813 193.467 43.888 193.961 43.888C194.932 43.888 195.66 44.1493 196.145 44.672C196.64 45.1853 196.887 45.8713 196.887 46.73V51H195.837L195.767 49.754C195.571 50.146 195.282 50.482 194.899 50.762C194.526 51.0327 194.022 51.168 193.387 51.168ZM193.569 50.174C194.017 50.174 194.4 50.0573 194.717 49.824C195.044 49.5907 195.291 49.2873 195.459 48.914C195.627 48.5407 195.711 48.1487 195.711 47.738V47.724H193.933C193.243 47.724 192.753 47.8453 192.463 48.088C192.183 48.3213 192.043 48.6153 192.043 48.97C192.043 49.334 192.174 49.628 192.435 49.852C192.706 50.0667 193.084 50.174 193.569 50.174ZM198.652 51V40.92H199.828V51H198.652ZM201.755 51V40.92H202.931V51H201.755ZM205.615 54.08L207.337 50.328H206.931L204.173 44.056H205.447L207.743 49.46L210.179 44.056H211.397L206.847 54.08H205.615ZM219.465 51.168C218.802 51.168 218.214 51.0187 217.701 50.72C217.188 50.412 216.782 49.9873 216.483 49.446C216.194 48.9047 216.049 48.2653 216.049 47.528C216.049 46.8 216.194 46.1653 216.483 45.624C216.772 45.0733 217.174 44.6487 217.687 44.35C218.21 44.042 218.812 43.888 219.493 43.888C220.165 43.888 220.744 44.042 221.229 44.35C221.724 44.6487 222.102 45.0453 222.363 45.54C222.624 46.0347 222.755 46.5667 222.755 47.136C222.755 47.2387 222.75 47.3413 222.741 47.444C222.741 47.5467 222.741 47.6633 222.741 47.794H217.211C217.239 48.326 217.36 48.7693 217.575 49.124C217.799 49.4693 218.074 49.7307 218.401 49.908C218.737 50.0853 219.092 50.174 219.465 50.174C219.95 50.174 220.356 50.062 220.683 49.838C221.01 49.614 221.248 49.3107 221.397 48.928H222.559C222.372 49.572 222.013 50.1087 221.481 50.538C220.958 50.958 220.286 51.168 219.465 51.168ZM219.465 44.882C218.905 44.882 218.406 45.0547 217.967 45.4C217.538 45.736 217.29 46.2307 217.225 46.884H221.593C221.565 46.2587 221.35 45.7687 220.949 45.414C220.548 45.0593 220.053 44.882 219.465 44.882ZM224.314 51V44.056H225.378L225.448 45.302C225.672 44.8633 225.994 44.518 226.414 44.266C226.834 44.014 227.31 43.888 227.842 43.888C228.663 43.888 229.316 44.14 229.802 44.644C230.296 45.1387 230.544 45.904 230.544 46.94V51H229.368V47.066C229.368 45.6193 228.77 44.896 227.576 44.896C226.978 44.896 226.479 45.1153 226.078 45.554C225.686 45.9833 225.49 46.5993 225.49 47.402V51H224.314ZM235.069 51C234.435 51 233.935 50.846 233.571 50.538C233.207 50.23 233.025 49.6747 233.025 48.872V45.05H231.821V44.056H233.025L233.179 42.39H234.201V44.056H236.245V45.05H234.201V48.872C234.201 49.3107 234.29 49.6093 234.467 49.768C234.645 49.9173 234.957 49.992 235.405 49.992H236.133V51H235.069ZM240.67 51.168C240.007 51.168 239.419 51.0187 238.906 50.72C238.393 50.412 237.987 49.9873 237.688 49.446C237.399 48.9047 237.254 48.2653 237.254 47.528C237.254 46.8 237.399 46.1653 237.688 45.624C237.977 45.0733 238.379 44.6487 238.892 44.35C239.415 44.042 240.017 43.888 240.698 43.888C241.37 43.888 241.949 44.042 242.434 44.35C242.929 44.6487 243.307 45.0453 243.568 45.54C243.829 46.0347 243.96 46.5667 243.96 47.136C243.96 47.2387 243.955 47.3413 243.946 47.444C243.946 47.5467 243.946 47.6633 243.946 47.794H238.416C238.444 48.326 238.565 48.7693 238.78 49.124C239.004 49.4693 239.279 49.7307 239.606 49.908C239.942 50.0853 240.297 50.174 240.67 50.174C241.155 50.174 241.561 50.062 241.888 49.838C242.215 49.614 242.453 49.3107 242.602 48.928H243.764C243.577 49.572 243.218 50.1087 242.686 50.538C242.163 50.958 241.491 51.168 240.67 51.168ZM240.67 44.882C240.11 44.882 239.611 45.0547 239.172 45.4C238.743 45.736 238.495 46.2307 238.43 46.884H242.798C242.77 46.2587 242.555 45.7687 242.154 45.414C241.753 45.0593 241.258 44.882 240.67 44.882ZM245.519 51V44.056H246.583L246.681 45.386C246.895 44.9287 247.222 44.5647 247.661 44.294C248.099 44.0233 248.641 43.888 249.285 43.888V45.12H248.963C248.552 45.12 248.174 45.1947 247.829 45.344C247.483 45.484 247.208 45.7267 247.003 46.072C246.797 46.4173 246.695 46.8933 246.695 47.5V51H245.519ZM253.467 51.168C252.804 51.168 252.216 51.0187 251.703 50.72C251.19 50.412 250.784 49.9873 250.485 49.446C250.196 48.9047 250.051 48.2653 250.051 47.528C250.051 46.8 250.196 46.1653 250.485 45.624C250.774 45.0733 251.176 44.6487 251.689 44.35C252.212 44.042 252.814 43.888 253.495 43.888C254.167 43.888 254.746 44.042 255.231 44.35C255.726 44.6487 256.104 45.0453 256.365 45.54C256.626 46.0347 256.757 46.5667 256.757 47.136C256.757 47.2387 256.752 47.3413 256.743 47.444C256.743 47.5467 256.743 47.6633 256.743 47.794H251.213C251.241 48.326 251.362 48.7693 251.577 49.124C251.801 49.4693 252.076 49.7307 252.403 49.908C252.739 50.0853 253.094 50.174 253.467 50.174C253.952 50.174 254.358 50.062 254.685 49.838C255.012 49.614 255.25 49.3107 255.399 48.928H256.561C256.374 49.572 256.015 50.1087 255.483 50.538C254.96 50.958 254.288 51.168 253.467 51.168ZM253.467 44.882C252.907 44.882 252.408 45.0547 251.969 45.4C251.54 45.736 251.292 46.2307 251.227 46.884H255.595C255.567 46.2587 255.352 45.7687 254.951 45.414C254.55 45.0593 254.055 44.882 253.467 44.882ZM261.466 51.168C260.775 51.168 260.168 51.0093 259.646 50.692C259.132 50.3747 258.731 49.9407 258.442 49.39C258.162 48.8393 258.022 48.214 258.022 47.514C258.022 46.814 258.166 46.1933 258.456 45.652C258.745 45.1013 259.146 44.672 259.66 44.364C260.173 44.0467 260.78 43.888 261.48 43.888C262.049 43.888 262.553 44.0047 262.992 44.238C263.43 44.4713 263.771 44.798 264.014 45.218V40.92H265.19V51H264.126L264.014 49.852C263.79 50.188 263.468 50.4913 263.048 50.762C262.628 51.0327 262.1 51.168 261.466 51.168ZM261.592 50.146C262.058 50.146 262.469 50.0387 262.824 49.824C263.188 49.6 263.468 49.292 263.664 48.9C263.869 48.508 263.972 48.0507 263.972 47.528C263.972 47.0053 263.869 46.548 263.664 46.156C263.468 45.764 263.188 45.4607 262.824 45.246C262.469 45.022 262.058 44.91 261.592 44.91C261.134 44.91 260.724 45.022 260.36 45.246C260.005 45.4607 259.725 45.764 259.52 46.156C259.324 46.548 259.226 47.0053 259.226 47.528C259.226 48.0507 259.324 48.508 259.52 48.9C259.725 49.292 260.005 49.6 260.36 49.824C260.724 50.0387 261.134 50.146 261.592 50.146ZM267.513 51.07C267.279 51.07 267.083 50.9953 266.925 50.846C266.775 50.6873 266.701 50.496 266.701 50.272C266.701 50.048 266.775 49.8613 266.925 49.712C267.083 49.5533 267.279 49.474 267.513 49.474C267.737 49.474 267.923 49.5533 268.073 49.712C268.231 49.8613 268.311 50.048 268.311 50.272C268.311 50.496 268.231 50.6873 268.073 50.846C267.923 50.9953 267.737 51.07 267.513 51.07ZM19.052 71.014L16.364 61.2H17.624L19.738 69.614L22.146 61.2H23.448L25.786 69.614L27.928 61.2H29.188L26.444 71H25.1L22.762 62.908L20.368 71L19.052 71.014ZM30.5012 71V60.92H31.6772V65.246C31.9105 64.8167 32.2418 64.4853 32.6712 64.252C33.1005 64.0093 33.5672 63.888 34.0712 63.888C34.8738 63.888 35.5178 64.14 36.0032 64.644C36.4885 65.1387 36.7312 65.904 36.7312 66.94V71H35.5692V67.066C35.5692 65.6193 34.9858 64.896 33.8192 64.896C33.2125 64.896 32.7038 65.1153 32.2932 65.554C31.8825 65.9833 31.6772 66.5993 31.6772 67.402V71H30.5012ZM41.6349 71.168C40.9722 71.168 40.3842 71.0187 39.8709 70.72C39.3575 70.412 38.9515 69.9873 38.6529 69.446C38.3635 68.9047 38.2189 68.2653 38.2189 67.528C38.2189 66.8 38.3635 66.1653 38.6529 65.624C38.9422 65.0733 39.3435 64.6487 39.8569 64.35C40.3795 64.042 40.9815 63.888 41.6629 63.888C42.3349 63.888 42.9135 64.042 43.3989 64.35C43.8935 64.6487 44.2715 65.0453 44.5329 65.54C44.7942 66.0347 44.9249 66.5667 44.9249 67.136C44.9249 67.2387 44.9202 67.3413 44.9109 67.444C44.9109 67.5467 44.9109 67.6633 44.9109 67.794H39.3809C39.4089 68.326 39.5302 68.7693 39.7449 69.124C39.9689 69.4693 40.2442 69.7307 40.5709 69.908C40.9069 70.0853 41.2615 70.174 41.6349 70.174C42.1202 70.174 42.5262 70.062 42.8529 69.838C43.1795 69.614 43.4175 69.3107 43.5669 68.928H44.7289C44.5422 69.572 44.1829 70.1087 43.6509 70.538C43.1282 70.958 42.4562 71.168 41.6349 71.168ZM41.6349 64.882C41.0749 64.882 40.5755 65.0547 40.1369 65.4C39.7075 65.736 39.4602 66.2307 39.3949 66.884H43.7629C43.7349 66.2587 43.5202 65.7687 43.1189 65.414C42.7175 65.0593 42.2229 64.882 41.6349 64.882ZM46.4836 71V64.056H47.5476L47.6176 65.302C47.8416 64.8633 48.1636 64.518 48.5836 64.266C49.0036 64.014 49.4796 63.888 50.0116 63.888C50.8329 63.888 51.4862 64.14 51.9716 64.644C52.4662 65.1387 52.7136 65.904 52.7136 66.94V71H51.5376V67.066C51.5376 65.6193 50.9402 64.896 49.7456 64.896C49.1482 64.896 48.6489 65.1153 48.2476 65.554C47.8556 65.9833 47.6596 66.5993 47.6596 67.402V71H46.4836ZM60.9444 71C60.3097 71 59.8104 70.846 59.4464 70.538C59.0824 70.23 58.9004 69.6747 58.9004 68.872V65.05H57.6964V64.056H58.9004L59.0544 62.39H60.0764V64.056H62.1204V65.05H60.0764V68.872C60.0764 69.3107 60.165 69.6093 60.3424 69.768C60.5197 69.9173 60.8324 69.992 61.2804 69.992H62.0084V71H60.9444ZM63.6144 71V60.92H64.7904V65.246C65.0238 64.8167 65.3551 64.4853 65.7844 64.252C66.2138 64.0093 66.6804 63.888 67.1844 63.888C67.9871 63.888 68.6311 64.14 69.1164 64.644C69.6018 65.1387 69.8444 65.904 69.8444 66.94V71H68.6824V67.066C68.6824 65.6193 68.0991 64.896 66.9324 64.896C66.3258 64.896 65.8171 65.1153 65.4064 65.554C64.9958 65.9833 64.7904 66.5993 64.7904 67.402V71H63.6144ZM74.7482 71.168C74.0855 71.168 73.4975 71.0187 72.9842 70.72C72.4708 70.412 72.0648 69.9873 71.7662 69.446C71.4768 68.9047 71.3322 68.2653 71.3322 67.528C71.3322 66.8 71.4768 66.1653 71.7662 65.624C72.0555 65.0733 72.4568 64.6487 72.9702 64.35C73.4928 64.042 74.0948 63.888 74.7762 63.888C75.4482 63.888 76.0268 64.042 76.5122 64.35C77.0068 64.6487 77.3848 65.0453 77.6462 65.54C77.9075 66.0347 78.0382 66.5667 78.0382 67.136C78.0382 67.2387 78.0335 67.3413 78.0242 67.444C78.0242 67.5467 78.0242 67.6633 78.0242 67.794H72.4942C72.5222 68.326 72.6435 68.7693 72.8582 69.124C73.0822 69.4693 73.3575 69.7307 73.6842 69.908C74.0202 70.0853 74.3748 70.174 74.7482 70.174C75.2335 70.174 75.6395 70.062 75.9662 69.838C76.2928 69.614 76.5308 69.3107 76.6802 68.928H77.8422C77.6555 69.572 77.2962 70.1087 76.7642 70.538C76.2415 70.958 75.5695 71.168 74.7482 71.168ZM74.7482 64.882C74.1882 64.882 73.6888 65.0547 73.2502 65.4C72.8208 65.736 72.5735 66.2307 72.5082 66.884H76.8762C76.8482 66.2587 76.6335 65.7687 76.2322 65.414C75.8308 65.0593 75.3362 64.882 74.7482 64.882ZM86.0459 71C85.4113 71 84.9119 70.846 84.5479 70.538C84.1839 70.23 84.0019 69.6747 84.0019 68.872V65.05H82.7979V64.056H84.0019L84.1559 62.39H85.1779V64.056H87.2219V65.05H85.1779V68.872C85.1779 69.3107 85.2666 69.6093 85.4439 69.768C85.6213 69.9173 85.9339 69.992 86.3819 69.992H87.1099V71H86.0459ZM91.6886 71.168C91.0353 71.168 90.4473 71.0187 89.9246 70.72C89.4019 70.4213 88.9866 70.0013 88.6786 69.46C88.3799 68.9093 88.2306 68.2653 88.2306 67.528C88.2306 66.7907 88.3846 66.1513 88.6926 65.61C89.0006 65.0593 89.4159 64.6347 89.9386 64.336C90.4706 64.0373 91.0633 63.888 91.7166 63.888C92.3699 63.888 92.9579 64.0373 93.4806 64.336C94.0033 64.6347 94.4139 65.0593 94.7126 65.61C95.0206 66.1513 95.1746 66.7907 95.1746 67.528C95.1746 68.2653 95.0206 68.9093 94.7126 69.46C94.4046 70.0013 93.9846 70.4213 93.4526 70.72C92.9299 71.0187 92.3419 71.168 91.6886 71.168ZM91.6886 70.16C92.0899 70.16 92.4633 70.062 92.8086 69.866C93.1539 69.67 93.4339 69.376 93.6486 68.984C93.8633 68.592 93.9706 68.1067 93.9706 67.528C93.9706 66.9493 93.8633 66.464 93.6486 66.072C93.4433 65.68 93.1679 65.386 92.8226 65.19C92.4773 64.994 92.1086 64.896 91.7166 64.896C91.3153 64.896 90.9419 64.994 90.5966 65.19C90.2513 65.386 89.9713 65.68 89.7566 66.072C89.5419 66.464 89.4346 66.9493 89.4346 67.528C89.4346 68.1067 89.5419 68.592 89.7566 68.984C89.9713 69.376 90.2466 69.67 90.5826 69.866C90.9279 70.062 91.2966 70.16 91.6886 70.16ZM99.253 68.816C98.861 68.816 98.5016 68.7647 98.175 68.662L97.475 69.32C97.5776 69.3947 97.7036 69.46 97.853 69.516C98.0116 69.5627 98.2356 69.6093 98.525 69.656C98.8143 69.6933 99.2203 69.7353 99.743 69.782C100.676 69.8473 101.344 70.062 101.745 70.426C102.146 70.79 102.347 71.266 102.347 71.854C102.347 72.2553 102.235 72.638 102.011 73.002C101.796 73.366 101.46 73.6647 101.003 73.898C100.555 74.1313 99.9763 74.248 99.267 74.248C98.6416 74.248 98.0863 74.164 97.601 73.996C97.1156 73.8373 96.7376 73.59 96.467 73.254C96.1963 72.9273 96.061 72.512 96.061 72.008C96.061 71.7467 96.131 71.462 96.271 71.154C96.411 70.8553 96.6723 70.5707 97.055 70.3C96.8496 70.216 96.6723 70.1273 96.523 70.034C96.383 69.9313 96.2523 69.8193 96.131 69.698V69.376L97.321 68.2C96.7703 67.7333 96.495 67.1173 96.495 66.352C96.495 65.8947 96.6023 65.4793 96.817 65.106C97.0316 64.7327 97.3443 64.4387 97.755 64.224C98.1656 64 98.665 63.888 99.253 63.888C99.6543 63.888 100.018 63.944 100.345 64.056H102.907V64.938L101.605 64.994C101.876 65.386 102.011 65.8387 102.011 66.352C102.011 66.8093 101.899 67.2247 101.675 67.598C101.46 67.9713 101.148 68.27 100.737 68.494C100.336 68.7087 99.841 68.816 99.253 68.816ZM99.253 67.85C99.7476 67.85 100.14 67.724 100.429 67.472C100.728 67.2107 100.877 66.8373 100.877 66.352C100.877 65.876 100.728 65.512 100.429 65.26C100.14 64.9987 99.7476 64.868 99.253 64.868C98.749 64.868 98.3476 64.9987 98.049 65.26C97.7596 65.512 97.615 65.876 97.615 66.352C97.615 66.8373 97.7596 67.2107 98.049 67.472C98.3476 67.724 98.749 67.85 99.253 67.85ZM97.209 71.896C97.209 72.3627 97.405 72.708 97.797 72.932C98.189 73.1653 98.679 73.282 99.267 73.282C99.8456 73.282 100.308 73.156 100.653 72.904C101.008 72.652 101.185 72.316 101.185 71.896C101.185 71.5973 101.064 71.336 100.821 71.112C100.578 70.8973 100.13 70.7713 99.477 70.734C98.9636 70.6967 98.5203 70.65 98.147 70.594C97.7643 70.7993 97.5123 71.0187 97.391 71.252C97.2696 71.4947 97.209 71.7093 97.209 71.896ZM106.978 68.816C106.586 68.816 106.226 68.7647 105.9 68.662L105.2 69.32C105.302 69.3947 105.428 69.46 105.578 69.516C105.736 69.5627 105.96 69.6093 106.25 69.656C106.539 69.6933 106.945 69.7353 107.468 69.782C108.401 69.8473 109.068 70.062 109.47 70.426C109.871 70.79 110.072 71.266 110.072 71.854C110.072 72.2553 109.96 72.638 109.736 73.002C109.521 73.366 109.185 73.6647 108.728 73.898C108.28 74.1313 107.701 74.248 106.992 74.248C106.366 74.248 105.811 74.164 105.326 73.996C104.84 73.8373 104.462 73.59 104.192 73.254C103.921 72.9273 103.786 72.512 103.786 72.008C103.786 71.7467 103.856 71.462 103.996 71.154C104.136 70.8553 104.397 70.5707 104.78 70.3C104.574 70.216 104.397 70.1273 104.248 70.034C104.108 69.9313 103.977 69.8193 103.856 69.698V69.376L105.046 68.2C104.495 67.7333 104.22 67.1173 104.22 66.352C104.22 65.8947 104.327 65.4793 104.542 65.106C104.756 64.7327 105.069 64.4387 105.48 64.224C105.89 64 106.39 63.888 106.978 63.888C107.379 63.888 107.743 63.944 108.07 64.056H110.632V64.938L109.33 64.994C109.6 65.386 109.736 65.8387 109.736 66.352C109.736 66.8093 109.624 67.2247 109.4 67.598C109.185 67.9713 108.872 68.27 108.462 68.494C108.06 68.7087 107.566 68.816 106.978 68.816ZM106.978 67.85C107.472 67.85 107.864 67.724 108.154 67.472C108.452 67.2107 108.602 66.8373 108.602 66.352C108.602 65.876 108.452 65.512 108.154 65.26C107.864 64.9987 107.472 64.868 106.978 64.868C106.474 64.868 106.072 64.9987 105.774 65.26C105.484 65.512 105.34 65.876 105.34 66.352C105.34 66.8373 105.484 67.2107 105.774 67.472C106.072 67.724 106.474 67.85 106.978 67.85ZM104.934 71.896C104.934 72.3627 105.13 72.708 105.522 72.932C105.914 73.1653 106.404 73.282 106.992 73.282C107.57 73.282 108.032 73.156 108.378 72.904C108.732 72.652 108.91 72.316 108.91 71.896C108.91 71.5973 108.788 71.336 108.546 71.112C108.303 70.8973 107.855 70.7713 107.202 70.734C106.688 70.6967 106.245 70.65 105.872 70.594C105.489 70.7993 105.237 71.0187 105.116 71.252C104.994 71.4947 104.934 71.7093 104.934 71.896ZM111.958 71V60.92H113.134V71H111.958ZM118.184 71.168C117.521 71.168 116.933 71.0187 116.42 70.72C115.906 70.412 115.5 69.9873 115.202 69.446C114.912 68.9047 114.768 68.2653 114.768 67.528C114.768 66.8 114.912 66.1653 115.202 65.624C115.491 65.0733 115.892 64.6487 116.406 64.35C116.928 64.042 117.53 63.888 118.212 63.888C118.884 63.888 119.462 64.042 119.948 64.35C120.442 64.6487 120.82 65.0453 121.082 65.54C121.343 66.0347 121.474 66.5667 121.474 67.136C121.474 67.2387 121.469 67.3413 121.46 67.444C121.46 67.5467 121.46 67.6633 121.46 67.794H115.93C115.958 68.326 116.079 68.7693 116.294 69.124C116.518 69.4693 116.793 69.7307 117.12 69.908C117.456 70.0853 117.81 70.174 118.184 70.174C118.669 70.174 119.075 70.062 119.402 69.838C119.728 69.614 119.966 69.3107 120.116 68.928H121.278C121.091 69.572 120.732 70.1087 120.2 70.538C119.677 70.958 119.005 71.168 118.184 71.168ZM118.184 64.882C117.624 64.882 117.124 65.0547 116.686 65.4C116.256 65.736 116.009 66.2307 115.944 66.884H120.312C120.284 66.2587 120.069 65.7687 119.668 65.414C119.266 65.0593 118.772 64.882 118.184 64.882ZM130.447 71.168C129.878 71.168 129.369 71.0513 128.921 70.818C128.483 70.5847 128.147 70.258 127.913 69.838L127.801 71H126.737V60.92H127.913V65.204C128.137 64.868 128.455 64.5647 128.865 64.294C129.285 64.0233 129.817 63.888 130.461 63.888C131.152 63.888 131.754 64.0467 132.267 64.364C132.781 64.6813 133.177 65.1153 133.457 65.666C133.747 66.2167 133.891 66.842 133.891 67.542C133.891 68.242 133.747 68.8673 133.457 69.418C133.177 69.9593 132.776 70.3887 132.253 70.706C131.74 71.014 131.138 71.168 130.447 71.168ZM130.321 70.146C130.788 70.146 131.199 70.0387 131.553 69.824C131.908 69.6 132.188 69.292 132.393 68.9C132.599 68.508 132.701 68.0507 132.701 67.528C132.701 67.0053 132.599 66.548 132.393 66.156C132.188 65.764 131.908 65.4607 131.553 65.246C131.199 65.022 130.788 64.91 130.321 64.91C129.855 64.91 129.444 65.022 129.089 65.246C128.735 65.4607 128.455 65.764 128.249 66.156C128.044 66.548 127.941 67.0053 127.941 67.528C127.941 68.0507 128.044 68.508 128.249 68.9C128.455 69.292 128.735 69.6 129.089 69.824C129.444 70.0387 129.855 70.146 130.321 70.146ZM138.062 71.168C137.241 71.168 136.588 70.9207 136.103 70.426C135.617 69.922 135.375 69.152 135.375 68.116V64.056H136.551V67.99C136.551 69.4367 137.143 70.16 138.329 70.16C138.935 70.16 139.435 69.9453 139.827 69.516C140.228 69.0773 140.429 68.4567 140.429 67.654V64.056H141.605V71H140.541L140.457 69.754C140.242 70.1927 139.92 70.538 139.491 70.79C139.071 71.042 138.595 71.168 138.062 71.168ZM146.284 71C145.65 71 145.15 70.846 144.786 70.538C144.422 70.23 144.24 69.6747 144.24 68.872V65.05H143.036V64.056H144.24L144.394 62.39H145.416V64.056H147.46V65.05H145.416V68.872C145.416 69.3107 145.505 69.6093 145.682 69.768C145.86 69.9173 146.172 69.992 146.62 69.992H147.348V71H146.284ZM151.698 71C151.064 71 150.564 70.846 150.2 70.538C149.836 70.23 149.654 69.6747 149.654 68.872V65.05H148.45V64.056H149.654L149.808 62.39H150.83V64.056H152.874V65.05H150.83V68.872C150.83 69.3107 150.919 69.6093 151.096 69.768C151.274 69.9173 151.586 69.992 152.034 69.992H152.762V71H151.698ZM157.341 71.168C156.688 71.168 156.1 71.0187 155.577 70.72C155.054 70.4213 154.639 70.0013 154.331 69.46C154.032 68.9093 153.883 68.2653 153.883 67.528C153.883 66.7907 154.037 66.1513 154.345 65.61C154.653 65.0593 155.068 64.6347 155.591 64.336C156.123 64.0373 156.716 63.888 157.369 63.888C158.022 63.888 158.61 64.0373 159.133 64.336C159.656 64.6347 160.066 65.0593 160.365 65.61C160.673 66.1513 160.827 66.7907 160.827 67.528C160.827 68.2653 160.673 68.9093 160.365 69.46C160.057 70.0013 159.637 70.4213 159.105 70.72C158.582 71.0187 157.994 71.168 157.341 71.168ZM157.341 70.16C157.742 70.16 158.116 70.062 158.461 69.866C158.806 69.67 159.086 69.376 159.301 68.984C159.516 68.592 159.623 68.1067 159.623 67.528C159.623 66.9493 159.516 66.464 159.301 66.072C159.096 65.68 158.82 65.386 158.475 65.19C158.13 64.994 157.761 64.896 157.369 64.896C156.968 64.896 156.594 64.994 156.249 65.19C155.904 65.386 155.624 65.68 155.409 66.072C155.194 66.464 155.087 66.9493 155.087 67.528C155.087 68.1067 155.194 68.592 155.409 68.984C155.624 69.376 155.899 69.67 156.235 69.866C156.58 70.062 156.949 70.16 157.341 70.16ZM162.462 71V64.056H163.526L163.596 65.302C163.82 64.8633 164.142 64.518 164.562 64.266C164.982 64.014 165.458 63.888 165.99 63.888C166.811 63.888 167.465 64.14 167.95 64.644C168.445 65.1387 168.692 65.904 168.692 66.94V71H167.516V67.066C167.516 65.6193 166.919 64.896 165.724 64.896C165.127 64.896 164.627 65.1153 164.226 65.554C163.834 65.9833 163.638 66.5993 163.638 67.402V71H162.462ZM174.893 62.516C174.66 62.516 174.464 62.4413 174.305 62.292C174.156 62.1333 174.081 61.9373 174.081 61.704C174.081 61.48 174.156 61.2933 174.305 61.144C174.464 60.9947 174.66 60.92 174.893 60.92C175.117 60.92 175.308 60.9947 175.467 61.144C175.626 61.2933 175.705 61.48 175.705 61.704C175.705 61.9373 175.626 62.1333 175.467 62.292C175.308 62.4413 175.117 62.516 174.893 62.516ZM174.305 71V64.056H175.481V71H174.305ZM180.189 71.168C179.358 71.168 178.667 70.958 178.117 70.538C177.566 70.118 177.244 69.5487 177.151 68.83H178.355C178.429 69.194 178.621 69.5113 178.929 69.782C179.246 70.0433 179.671 70.174 180.203 70.174C180.697 70.174 181.061 70.0713 181.295 69.866C181.528 69.6513 181.645 69.3993 181.645 69.11C181.645 68.69 181.491 68.41 181.183 68.27C180.884 68.13 180.459 68.004 179.909 67.892C179.535 67.8173 179.162 67.71 178.789 67.57C178.415 67.43 178.103 67.234 177.851 66.982C177.599 66.7207 177.473 66.38 177.473 65.96C177.473 65.3533 177.697 64.8587 178.145 64.476C178.602 64.084 179.218 63.888 179.993 63.888C180.73 63.888 181.332 64.0747 181.799 64.448C182.275 64.812 182.55 65.3347 182.625 66.016H181.463C181.416 65.6613 181.262 65.386 181.001 65.19C180.749 64.9847 180.408 64.882 179.979 64.882C179.559 64.882 179.232 64.9707 178.999 65.148C178.775 65.3253 178.663 65.5587 178.663 65.848C178.663 66.128 178.807 66.3473 179.097 66.506C179.395 66.6647 179.797 66.8 180.301 66.912C180.73 67.0053 181.136 67.122 181.519 67.262C181.911 67.3927 182.228 67.5933 182.471 67.864C182.723 68.1253 182.849 68.508 182.849 69.012C182.858 69.6373 182.62 70.1553 182.135 70.566C181.659 70.9673 181.01 71.168 180.189 71.168ZM191.384 71.168C190.693 71.168 190.086 71.0093 189.564 70.692C189.05 70.3747 188.649 69.9407 188.36 69.39C188.08 68.8393 187.94 68.214 187.94 67.514C187.94 66.814 188.084 66.1933 188.374 65.652C188.663 65.1013 189.064 64.672 189.578 64.364C190.091 64.0467 190.698 63.888 191.398 63.888C191.967 63.888 192.471 64.0047 192.91 64.238C193.348 64.4713 193.689 64.798 193.932 65.218V60.92H195.108V71H194.044L193.932 69.852C193.708 70.188 193.386 70.4913 192.966 70.762C192.546 71.0327 192.018 71.168 191.384 71.168ZM191.51 70.146C191.976 70.146 192.387 70.0387 192.742 69.824C193.106 69.6 193.386 69.292 193.582 68.9C193.787 68.508 193.89 68.0507 193.89 67.528C193.89 67.0053 193.787 66.548 193.582 66.156C193.386 65.764 193.106 65.4607 192.742 65.246C192.387 65.022 191.976 64.91 191.51 64.91C191.052 64.91 190.642 65.022 190.278 65.246C189.923 65.4607 189.643 65.764 189.438 66.156C189.242 66.548 189.144 67.0053 189.144 67.528C189.144 68.0507 189.242 68.508 189.438 68.9C189.643 69.292 189.923 69.6 190.278 69.824C190.642 70.0387 191.052 70.146 191.51 70.146ZM197.739 62.516C197.505 62.516 197.309 62.4413 197.151 62.292C197.001 62.1333 196.927 61.9373 196.927 61.704C196.927 61.48 197.001 61.2933 197.151 61.144C197.309 60.9947 197.505 60.92 197.739 60.92C197.963 60.92 198.154 60.9947 198.313 61.144C198.471 61.2933 198.551 61.48 198.551 61.704C198.551 61.9373 198.471 62.1333 198.313 62.292C198.154 62.4413 197.963 62.516 197.739 62.516ZM197.151 71V64.056H198.327V71H197.151ZM203.034 71.168C202.204 71.168 201.513 70.958 200.962 70.538C200.412 70.118 200.09 69.5487 199.996 68.83H201.2C201.275 69.194 201.466 69.5113 201.774 69.782C202.092 70.0433 202.516 70.174 203.048 70.174C203.543 70.174 203.907 70.0713 204.14 69.866C204.374 69.6513 204.49 69.3993 204.49 69.11C204.49 68.69 204.336 68.41 204.028 68.27C203.73 68.13 203.305 68.004 202.754 67.892C202.381 67.8173 202.008 67.71 201.634 67.57C201.261 67.43 200.948 67.234 200.696 66.982C200.444 66.7207 200.318 66.38 200.318 65.96C200.318 65.3533 200.542 64.8587 200.99 64.476C201.448 64.084 202.064 63.888 202.838 63.888C203.576 63.888 204.178 64.0747 204.644 64.448C205.12 64.812 205.396 65.3347 205.47 66.016H204.308C204.262 65.6613 204.108 65.386 203.846 65.19C203.594 64.9847 203.254 64.882 202.824 64.882C202.404 64.882 202.078 64.9707 201.844 65.148C201.62 65.3253 201.508 65.5587 201.508 65.848C201.508 66.128 201.653 66.3473 201.942 66.506C202.241 66.6647 202.642 66.8 203.146 66.912C203.576 67.0053 203.982 67.122 204.364 67.262C204.756 67.3927 205.074 67.5933 205.316 67.864C205.568 68.1253 205.694 68.508 205.694 69.012C205.704 69.6373 205.466 70.1553 204.98 70.566C204.504 70.9673 203.856 71.168 203.034 71.168ZM209.684 71.168C209.106 71.168 208.625 71.07 208.242 70.874C207.86 70.678 207.575 70.4167 207.388 70.09C207.202 69.7633 207.108 69.4087 207.108 69.026C207.108 68.3167 207.379 67.7707 207.92 67.388C208.462 67.0053 209.199 66.814 210.132 66.814H212.008V66.73C212.008 66.1233 211.85 65.666 211.532 65.358C211.215 65.0407 210.79 64.882 210.258 64.882C209.801 64.882 209.404 64.9987 209.068 65.232C208.742 65.456 208.536 65.7873 208.452 66.226H207.248C207.295 65.722 207.463 65.2973 207.752 64.952C208.051 64.6067 208.42 64.3453 208.858 64.168C209.297 63.9813 209.764 63.888 210.258 63.888C211.229 63.888 211.957 64.1493 212.442 64.672C212.937 65.1853 213.184 65.8713 213.184 66.73V71H212.134L212.064 69.754C211.868 70.146 211.579 70.482 211.196 70.762C210.823 71.0327 210.319 71.168 209.684 71.168ZM209.866 70.174C210.314 70.174 210.697 70.0573 211.014 69.824C211.341 69.5907 211.588 69.2873 211.756 68.914C211.924 68.5407 212.008 68.1487 212.008 67.738V67.724H210.23C209.54 67.724 209.05 67.8453 208.76 68.088C208.48 68.3213 208.34 68.6153 208.34 68.97C208.34 69.334 208.471 69.628 208.732 69.852C209.003 70.0667 209.381 70.174 209.866 70.174ZM218.658 71.168C218.089 71.168 217.58 71.0513 217.132 70.818C216.694 70.5847 216.358 70.258 216.124 69.838L216.012 71H214.948V60.92H216.124V65.204C216.348 64.868 216.666 64.5647 217.076 64.294C217.496 64.0233 218.028 63.888 218.672 63.888C219.363 63.888 219.965 64.0467 220.478 64.364C220.992 64.6813 221.388 65.1153 221.668 65.666C221.958 66.2167 222.102 66.842 222.102 67.542C222.102 68.242 221.958 68.8673 221.668 69.418C221.388 69.9593 220.987 70.3887 220.464 70.706C219.951 71.014 219.349 71.168 218.658 71.168ZM218.532 70.146C218.999 70.146 219.41 70.0387 219.764 69.824C220.119 69.6 220.399 69.292 220.604 68.9C220.81 68.508 220.912 68.0507 220.912 67.528C220.912 67.0053 220.81 66.548 220.604 66.156C220.399 65.764 220.119 65.4607 219.764 65.246C219.41 65.022 218.999 64.91 218.532 64.91C218.066 64.91 217.655 65.022 217.3 65.246C216.946 65.4607 216.666 65.764 216.46 66.156C216.255 66.548 216.152 67.0053 216.152 67.528C216.152 68.0507 216.255 68.508 216.46 68.9C216.666 69.292 216.946 69.6 217.3 69.824C217.655 70.0387 218.066 70.146 218.532 70.146ZM223.739 71V60.92H224.915V71H223.739ZM229.965 71.168C229.302 71.168 228.714 71.0187 228.201 70.72C227.688 70.412 227.282 69.9873 226.983 69.446C226.694 68.9047 226.549 68.2653 226.549 67.528C226.549 66.8 226.694 66.1653 226.983 65.624C227.272 65.0733 227.674 64.6487 228.187 64.35C228.71 64.042 229.312 63.888 229.993 63.888C230.665 63.888 231.244 64.042 231.729 64.35C232.224 64.6487 232.602 65.0453 232.863 65.54C233.124 66.0347 233.255 66.5667 233.255 67.136C233.255 67.2387 233.25 67.3413 233.241 67.444C233.241 67.5467 233.241 67.6633 233.241 67.794H227.711C227.739 68.326 227.86 68.7693 228.075 69.124C228.299 69.4693 228.574 69.7307 228.901 69.908C229.237 70.0853 229.592 70.174 229.965 70.174C230.45 70.174 230.856 70.062 231.183 69.838C231.51 69.614 231.748 69.3107 231.897 68.928H233.059C232.872 69.572 232.513 70.1087 231.981 70.538C231.458 70.958 230.786 71.168 229.965 71.168ZM229.965 64.882C229.405 64.882 228.906 65.0547 228.467 65.4C228.038 65.736 227.79 66.2307 227.725 66.884H232.093C232.065 66.2587 231.85 65.7687 231.449 65.414C231.048 65.0593 230.553 64.882 229.965 64.882ZM237.964 71.168C237.273 71.168 236.666 71.0093 236.144 70.692C235.63 70.3747 235.229 69.9407 234.94 69.39C234.66 68.8393 234.52 68.214 234.52 67.514C234.52 66.814 234.664 66.1933 234.954 65.652C235.243 65.1013 235.644 64.672 236.158 64.364C236.671 64.0467 237.278 63.888 237.978 63.888C238.547 63.888 239.051 64.0047 239.49 64.238C239.928 64.4713 240.269 64.798 240.512 65.218V60.92H241.688V71H240.624L240.512 69.852C240.288 70.188 239.966 70.4913 239.546 70.762C239.126 71.0327 238.598 71.168 237.964 71.168ZM238.09 70.146C238.556 70.146 238.967 70.0387 239.322 69.824C239.686 69.6 239.966 69.292 240.162 68.9C240.367 68.508 240.47 68.0507 240.47 67.528C240.47 67.0053 240.367 66.548 240.162 66.156C239.966 65.764 239.686 65.4607 239.322 65.246C238.967 65.022 238.556 64.91 238.09 64.91C237.632 64.91 237.222 65.022 236.858 65.246C236.503 65.4607 236.223 65.764 236.018 66.156C235.822 66.548 235.724 67.0053 235.724 67.528C235.724 68.0507 235.822 68.508 236.018 68.9C236.223 69.292 236.503 69.6 236.858 69.824C237.222 70.0387 237.632 70.146 238.09 70.146ZM242.667 72.666L243.479 69.572H244.697L243.479 72.666H242.667ZM250.554 74.08L252.276 70.328H251.87L249.112 64.056H250.386L252.682 69.46L255.118 64.056H256.336L251.786 74.08H250.554ZM260.085 71.168C259.432 71.168 258.844 71.0187 258.321 70.72C257.798 70.4213 257.383 70.0013 257.075 69.46C256.776 68.9093 256.627 68.2653 256.627 67.528C256.627 66.7907 256.781 66.1513 257.089 65.61C257.397 65.0593 257.812 64.6347 258.335 64.336C258.867 64.0373 259.46 63.888 260.113 63.888C260.766 63.888 261.354 64.0373 261.877 64.336C262.4 64.6347 262.81 65.0593 263.109 65.61C263.417 66.1513 263.571 66.7907 263.571 67.528C263.571 68.2653 263.417 68.9093 263.109 69.46C262.801 70.0013 262.381 70.4213 261.849 70.72C261.326 71.0187 260.738 71.168 260.085 71.168ZM260.085 70.16C260.486 70.16 260.86 70.062 261.205 69.866C261.55 69.67 261.83 69.376 262.045 68.984C262.26 68.592 262.367 68.1067 262.367 67.528C262.367 66.9493 262.26 66.464 262.045 66.072C261.84 65.68 261.564 65.386 261.219 65.19C260.874 64.994 260.505 64.896 260.113 64.896C259.712 64.896 259.338 64.994 258.993 65.19C258.648 65.386 258.368 65.68 258.153 66.072C257.938 66.464 257.831 66.9493 257.831 67.528C257.831 68.1067 257.938 68.592 258.153 68.984C258.368 69.376 258.643 69.67 258.979 69.866C259.324 70.062 259.693 70.16 260.085 70.16ZM267.74 71.168C266.919 71.168 266.266 70.9207 265.78 70.426C265.295 69.922 265.052 69.152 265.052 68.116V64.056H266.228V67.99C266.228 69.4367 266.821 70.16 268.006 70.16C268.613 70.16 269.112 69.9453 269.504 69.516C269.906 69.0773 270.106 68.4567 270.106 67.654V64.056H271.282V71H270.218L270.134 69.754C269.92 70.1927 269.598 70.538 269.168 70.79C268.748 71.042 268.272 71.168 267.74 71.168ZM16.966 91V80.92H18.142V85.246C18.3753 84.8167 18.7067 84.4853 19.136 84.252C19.5653 84.0093 20.032 83.888 20.536 83.888C21.3387 83.888 21.9827 84.14 22.468 84.644C22.9533 85.1387 23.196 85.904 23.196 86.94V91H22.034V87.066C22.034 85.6193 21.4507 84.896 20.284 84.896C19.6773 84.896 19.1687 85.1153 18.758 85.554C18.3473 85.9833 18.142 86.5993 18.142 87.402V91H16.966ZM27.2877 91.168C26.7091 91.168 26.2284 91.07 25.8457 90.874C25.4631 90.678 25.1784 90.4167 24.9917 90.09C24.8051 89.7633 24.7117 89.4087 24.7117 89.026C24.7117 88.3167 24.9824 87.7707 25.5237 87.388C26.0651 87.0053 26.8024 86.814 27.7357 86.814H29.6117V86.73C29.6117 86.1233 29.4531 85.666 29.1357 85.358C28.8184 85.0407 28.3937 84.882 27.8617 84.882C27.4044 84.882 27.0077 84.9987 26.6717 85.232C26.3451 85.456 26.1397 85.7873 26.0557 86.226H24.8517C24.8984 85.722 25.0664 85.2973 25.3557 84.952C25.6544 84.6067 26.0231 84.3453 26.4617 84.168C26.9004 83.9813 27.3671 83.888 27.8617 83.888C28.8324 83.888 29.5604 84.1493 30.0457 84.672C30.5404 85.1853 30.7877 85.8713 30.7877 86.73V91H29.7377L29.6677 89.754C29.4717 90.146 29.1824 90.482 28.7997 90.762C28.4264 91.0327 27.9224 91.168 27.2877 91.168ZM27.4697 90.174C27.9177 90.174 28.3004 90.0573 28.6177 89.824C28.9444 89.5907 29.1917 89.2873 29.3597 88.914C29.5277 88.5407 29.6117 88.1487 29.6117 87.738V87.724H27.8337C27.1431 87.724 26.6531 87.8453 26.3637 88.088C26.0837 88.3213 25.9437 88.6153 25.9437 88.97C25.9437 89.334 26.0744 89.628 26.3357 89.852C26.6064 90.0667 26.9844 90.174 27.4697 90.174ZM34.2942 91L31.6622 84.056H32.8942L34.9802 89.866L37.0802 84.056H38.2842L35.6522 91H34.2942ZM42.3595 91.168C41.6968 91.168 41.1088 91.0187 40.5955 90.72C40.0822 90.412 39.6762 89.9873 39.3775 89.446C39.0882 88.9047 38.9435 88.2653 38.9435 87.528C38.9435 86.8 39.0882 86.1653 39.3775 85.624C39.6668 85.0733 40.0682 84.6487 40.5815 84.35C41.1042 84.042 41.7062 83.888 42.3875 83.888C43.0595 83.888 43.6382 84.042 44.1235 84.35C44.6182 84.6487 44.9962 85.0453 45.2575 85.54C45.5188 86.0347 45.6495 86.5667 45.6495 87.136C45.6495 87.2387 45.6448 87.3413 45.6355 87.444C45.6355 87.5467 45.6355 87.6633 45.6355 87.794H40.1055C40.1335 88.326 40.2548 88.7693 40.4695 89.124C40.6935 89.4693 40.9688 89.7307 41.2955 89.908C41.6315 90.0853 41.9862 90.174 42.3595 90.174C42.8448 90.174 43.2508 90.062 43.5775 89.838C43.9042 89.614 44.1422 89.3107 44.2915 88.928H45.4535C45.2668 89.572 44.9075 90.1087 44.3755 90.538C43.8528 90.958 43.1808 91.168 42.3595 91.168ZM42.3595 84.882C41.7995 84.882 41.3002 85.0547 40.8615 85.4C40.4322 85.736 40.1848 86.2307 40.1195 86.884H44.4875C44.4595 86.2587 44.2448 85.7687 43.8435 85.414C43.4422 85.0593 42.9475 84.882 42.3595 84.882ZM53.6573 91C53.0226 91 52.5233 90.846 52.1593 90.538C51.7953 90.23 51.6133 89.6747 51.6133 88.872V85.05H50.4093V84.056H51.6133L51.7673 82.39H52.7893V84.056H54.8333V85.05H52.7893V88.872C52.7893 89.3107 52.8779 89.6093 53.0553 89.768C53.2326 89.9173 53.5453 89.992 53.9933 89.992H54.7213V91H53.6573ZM56.3273 91V80.92H57.5033V85.246C57.7367 84.8167 58.068 84.4853 58.4973 84.252C58.9267 84.0093 59.3933 83.888 59.8973 83.888C60.7 83.888 61.344 84.14 61.8293 84.644C62.3147 85.1387 62.5573 85.904 62.5573 86.94V91H61.3953V87.066C61.3953 85.6193 60.812 84.896 59.6453 84.896C59.0387 84.896 58.53 85.1153 58.1193 85.554C57.7087 85.9833 57.5033 86.5993 57.5033 87.402V91H56.3273ZM67.461 91.168C66.7984 91.168 66.2104 91.0187 65.697 90.72C65.1837 90.412 64.7777 89.9873 64.479 89.446C64.1897 88.9047 64.045 88.2653 64.045 87.528C64.045 86.8 64.1897 86.1653 64.479 85.624C64.7684 85.0733 65.1697 84.6487 65.683 84.35C66.2057 84.042 66.8077 83.888 67.489 83.888C68.161 83.888 68.7397 84.042 69.225 84.35C69.7197 84.6487 70.0977 85.0453 70.359 85.54C70.6204 86.0347 70.751 86.5667 70.751 87.136C70.751 87.2387 70.7464 87.3413 70.737 87.444C70.737 87.5467 70.737 87.6633 70.737 87.794H65.207C65.235 88.326 65.3564 88.7693 65.571 89.124C65.795 89.4693 66.0704 89.7307 66.397 89.908C66.733 90.0853 67.0877 90.174 67.461 90.174C67.9464 90.174 68.3524 90.062 68.679 89.838C69.0057 89.614 69.2437 89.3107 69.393 88.928H70.555C70.3684 89.572 70.009 90.1087 69.477 90.538C68.9544 90.958 68.2824 91.168 67.461 91.168ZM67.461 84.882C66.901 84.882 66.4017 85.0547 65.963 85.4C65.5337 85.736 65.2864 86.2307 65.221 86.884H69.589C69.561 86.2587 69.3464 85.7687 68.945 85.414C68.5437 85.0593 68.049 84.882 67.461 84.882ZM79.1788 91.168C78.5255 91.168 77.9375 91.0187 77.4148 90.72C76.8922 90.4213 76.4768 90.0013 76.1688 89.46C75.8702 88.9093 75.7208 88.2653 75.7208 87.528C75.7208 86.7907 75.8748 86.1513 76.1828 85.61C76.4908 85.0593 76.9062 84.6347 77.4288 84.336C77.9608 84.0373 78.5535 83.888 79.2068 83.888C79.8602 83.888 80.4482 84.0373 80.9708 84.336C81.4935 84.6347 81.9042 85.0593 82.2028 85.61C82.5108 86.1513 82.6648 86.7907 82.6648 87.528C82.6648 88.2653 82.5108 88.9093 82.2028 89.46C81.8948 90.0013 81.4748 90.4213 80.9428 90.72C80.4202 91.0187 79.8322 91.168 79.1788 91.168ZM79.1788 90.16C79.5802 90.16 79.9535 90.062 80.2988 89.866C80.6442 89.67 80.9242 89.376 81.1388 88.984C81.3535 88.592 81.4608 88.1067 81.4608 87.528C81.4608 86.9493 81.3535 86.464 81.1388 86.072C80.9335 85.68 80.6582 85.386 80.3128 85.19C79.9675 84.994 79.5988 84.896 79.2068 84.896C78.8055 84.896 78.4322 84.994 78.0868 85.19C77.7415 85.386 77.4615 85.68 77.2468 86.072C77.0322 86.464 76.9248 86.9493 76.9248 87.528C76.9248 88.1067 77.0322 88.592 77.2468 88.984C77.4615 89.376 77.7368 89.67 78.0728 89.866C78.4182 90.062 78.7868 90.16 79.1788 90.16ZM84.3 94.08V84.056H85.364L85.476 85.204C85.7 84.868 86.0173 84.5647 86.428 84.294C86.848 84.0233 87.38 83.888 88.024 83.888C88.7147 83.888 89.3167 84.0467 89.83 84.364C90.3433 84.6813 90.74 85.1153 91.02 85.666C91.3093 86.2167 91.454 86.842 91.454 87.542C91.454 88.242 91.3093 88.8673 91.02 89.418C90.74 89.9593 90.3387 90.3887 89.816 90.706C89.3027 91.014 88.7007 91.168 88.01 91.168C87.4407 91.168 86.932 91.0513 86.484 90.818C86.0453 90.5847 85.7093 90.258 85.476 89.838V94.08H84.3ZM87.884 90.146C88.3507 90.146 88.7613 90.0387 89.116 89.824C89.4707 89.6 89.7507 89.292 89.956 88.9C90.1613 88.508 90.264 88.0507 90.264 87.528C90.264 87.0053 90.1613 86.548 89.956 86.156C89.7507 85.764 89.4707 85.4607 89.116 85.246C88.7613 85.022 88.3507 84.91 87.884 84.91C87.4173 84.91 87.0067 85.022 86.652 85.246C86.2973 85.4607 86.0173 85.764 85.812 86.156C85.6067 86.548 85.504 87.0053 85.504 87.528C85.504 88.0507 85.6067 88.508 85.812 88.9C86.0173 89.292 86.2973 89.6 86.652 89.824C87.0067 90.0387 87.4173 90.146 87.884 90.146ZM95.5616 91C94.9269 91 94.4276 90.846 94.0636 90.538C93.6996 90.23 93.5176 89.6747 93.5176 88.872V85.05H92.3136V84.056H93.5176L93.6716 82.39H94.6936V84.056H96.7376V85.05H94.6936V88.872C94.6936 89.3107 94.7822 89.6093 94.9596 89.768C95.1369 89.9173 95.4496 89.992 95.8976 89.992H96.6256V91H95.5616ZM98.9456 82.516C98.7123 82.516 98.5163 82.4413 98.3576 82.292C98.2083 82.1333 98.1336 81.9373 98.1336 81.704C98.1336 81.48 98.2083 81.2933 98.3576 81.144C98.5163 80.9947 98.7123 80.92 98.9456 80.92C99.1696 80.92 99.361 80.9947 99.5196 81.144C99.6783 81.2933 99.7576 81.48 99.7576 81.704C99.7576 81.9373 99.6783 82.1333 99.5196 82.292C99.361 82.4413 99.1696 82.516 98.9456 82.516ZM98.3576 91V84.056H99.5336V91H98.3576ZM104.745 91.168C104.092 91.168 103.504 91.0187 102.981 90.72C102.459 90.4213 102.043 90.0013 101.735 89.46C101.437 88.9093 101.287 88.2653 101.287 87.528C101.287 86.7907 101.441 86.1513 101.749 85.61C102.057 85.0593 102.473 84.6347 102.995 84.336C103.527 84.0373 104.12 83.888 104.773 83.888C105.427 83.888 106.015 84.0373 106.537 84.336C107.06 84.6347 107.471 85.0593 107.769 85.61C108.077 86.1513 108.231 86.7907 108.231 87.528C108.231 88.2653 108.077 88.9093 107.769 89.46C107.461 90.0013 107.041 90.4213 106.509 90.72C105.987 91.0187 105.399 91.168 104.745 91.168ZM104.745 90.16C105.147 90.16 105.52 90.062 105.865 89.866C106.211 89.67 106.491 89.376 106.705 88.984C106.92 88.592 107.027 88.1067 107.027 87.528C107.027 86.9493 106.92 86.464 106.705 86.072C106.5 85.68 106.225 85.386 105.879 85.19C105.534 84.994 105.165 84.896 104.773 84.896C104.372 84.896 103.999 84.994 103.653 85.19C103.308 85.386 103.028 85.68 102.813 86.072C102.599 86.464 102.491 86.9493 102.491 87.528C102.491 88.1067 102.599 88.592 102.813 88.984C103.028 89.376 103.303 89.67 103.639 89.866C103.985 90.062 104.353 90.16 104.745 90.16ZM109.866 91V84.056H110.93L111 85.302C111.224 84.8633 111.546 84.518 111.966 84.266C112.386 84.014 112.862 83.888 113.394 83.888C114.216 83.888 114.869 84.14 115.354 84.644C115.849 85.1387 116.096 85.904 116.096 86.94V91H114.92V87.066C114.92 85.6193 114.323 84.896 113.128 84.896C112.531 84.896 112.032 85.1153 111.63 85.554C111.238 85.9833 111.042 86.5993 111.042 87.402V91H109.866ZM124.327 91C123.693 91 123.193 90.846 122.829 90.538C122.465 90.23 122.283 89.6747 122.283 88.872V85.05H121.079V84.056H122.283L122.437 82.39H123.459V84.056H125.503V85.05H123.459V88.872C123.459 89.3107 123.548 89.6093 123.725 89.768C123.903 89.9173 124.215 89.992 124.663 89.992H125.391V91H124.327ZM129.97 91.168C129.317 91.168 128.729 91.0187 128.206 90.72C127.683 90.4213 127.268 90.0013 126.96 89.46C126.661 88.9093 126.512 88.2653 126.512 87.528C126.512 86.7907 126.666 86.1513 126.974 85.61C127.282 85.0593 127.697 84.6347 128.22 84.336C128.752 84.0373 129.345 83.888 129.998 83.888C130.651 83.888 131.239 84.0373 131.762 84.336C132.285 84.6347 132.695 85.0593 132.994 85.61C133.302 86.1513 133.456 86.7907 133.456 87.528C133.456 88.2653 133.302 88.9093 132.994 89.46C132.686 90.0013 132.266 90.4213 131.734 90.72C131.211 91.0187 130.623 91.168 129.97 91.168ZM129.97 90.16C130.371 90.16 130.745 90.062 131.09 89.866C131.435 89.67 131.715 89.376 131.93 88.984C132.145 88.592 132.252 88.1067 132.252 87.528C132.252 86.9493 132.145 86.464 131.93 86.072C131.725 85.68 131.449 85.386 131.104 85.19C130.759 84.994 130.39 84.896 129.998 84.896C129.597 84.896 129.223 84.994 128.878 85.19C128.533 85.386 128.253 85.68 128.038 86.072C127.823 86.464 127.716 86.9493 127.716 87.528C127.716 88.1067 127.823 88.592 128.038 88.984C128.253 89.376 128.528 89.67 128.864 89.866C129.209 90.062 129.578 90.16 129.97 90.16ZM138.796 91V84.056H139.86L139.944 85.064C140.168 84.6907 140.467 84.4013 140.84 84.196C141.213 83.9907 141.633 83.888 142.1 83.888C142.651 83.888 143.122 84 143.514 84.224C143.915 84.448 144.223 84.7887 144.438 85.246C144.681 84.826 145.012 84.4947 145.432 84.252C145.861 84.0093 146.323 83.888 146.818 83.888C147.649 83.888 148.311 84.14 148.806 84.644C149.301 85.1387 149.548 85.904 149.548 86.94V91H148.386V87.066C148.386 86.3473 148.241 85.806 147.952 85.442C147.663 85.078 147.247 84.896 146.706 84.896C146.146 84.896 145.679 85.1153 145.306 85.554C144.942 85.9833 144.76 86.5993 144.76 87.402V91H143.584V87.066C143.584 86.3473 143.439 85.806 143.15 85.442C142.861 85.078 142.445 84.896 141.904 84.896C141.353 84.896 140.891 85.1153 140.518 85.554C140.154 85.9833 139.972 86.5993 139.972 87.402V91H138.796ZM153.63 91.168C153.051 91.168 152.57 91.07 152.188 90.874C151.805 90.678 151.52 90.4167 151.334 90.09C151.147 89.7633 151.054 89.4087 151.054 89.026C151.054 88.3167 151.324 87.7707 151.866 87.388C152.407 87.0053 153.144 86.814 154.078 86.814H155.954V86.73C155.954 86.1233 155.795 85.666 155.478 85.358C155.16 85.0407 154.736 84.882 154.204 84.882C153.746 84.882 153.35 84.9987 153.014 85.232C152.687 85.456 152.482 85.7873 152.398 86.226H151.194C151.24 85.722 151.408 85.2973 151.698 84.952C151.996 84.6067 152.365 84.3453 152.804 84.168C153.242 83.9813 153.709 83.888 154.204 83.888C155.174 83.888 155.902 84.1493 156.388 84.672C156.882 85.1853 157.13 85.8713 157.13 86.73V91H156.08L156.01 89.754C155.814 90.146 155.524 90.482 155.142 90.762C154.768 91.0327 154.264 91.168 153.63 91.168ZM153.812 90.174C154.26 90.174 154.642 90.0573 154.96 89.824C155.286 89.5907 155.534 89.2873 155.702 88.914C155.87 88.5407 155.954 88.1487 155.954 87.738V87.724H154.176C153.485 87.724 152.995 87.8453 152.706 88.088C152.426 88.3213 152.286 88.6153 152.286 88.97C152.286 89.334 152.416 89.628 152.678 89.852C152.948 90.0667 153.326 90.174 153.812 90.174ZM158.894 91V84.056H159.958L160.028 85.302C160.252 84.8633 160.574 84.518 160.994 84.266C161.414 84.014 161.89 83.888 162.422 83.888C163.243 83.888 163.896 84.14 164.382 84.644C164.876 85.1387 165.124 85.904 165.124 86.94V91H163.948V87.066C163.948 85.6193 163.35 84.896 162.156 84.896C161.558 84.896 161.059 85.1153 160.658 85.554C160.266 85.9833 160.07 86.5993 160.07 87.402V91H158.894ZM169.439 91.168C168.618 91.168 167.965 90.9207 167.479 90.426C166.994 89.922 166.751 89.152 166.751 88.116V84.056H167.927V87.99C167.927 89.4367 168.52 90.16 169.705 90.16C170.312 90.16 170.811 89.9453 171.203 89.516C171.605 89.0773 171.805 88.4567 171.805 87.654V84.056H172.981V91H171.917L171.833 89.754C171.619 90.1927 171.297 90.538 170.867 90.79C170.447 91.042 169.971 91.168 169.439 91.168ZM177.227 91.168C176.649 91.168 176.168 91.07 175.785 90.874C175.403 90.678 175.118 90.4167 174.931 90.09C174.745 89.7633 174.651 89.4087 174.651 89.026C174.651 88.3167 174.922 87.7707 175.463 87.388C176.005 87.0053 176.742 86.814 177.675 86.814H179.551V86.73C179.551 86.1233 179.393 85.666 179.075 85.358C178.758 85.0407 178.333 84.882 177.801 84.882C177.344 84.882 176.947 84.9987 176.611 85.232C176.285 85.456 176.079 85.7873 175.995 86.226H174.791C174.838 85.722 175.006 85.2973 175.295 84.952C175.594 84.6067 175.963 84.3453 176.401 84.168C176.84 83.9813 177.307 83.888 177.801 83.888C178.772 83.888 179.5 84.1493 179.985 84.672C180.48 85.1853 180.727 85.8713 180.727 86.73V91H179.677L179.607 89.754C179.411 90.146 179.122 90.482 178.739 90.762C178.366 91.0327 177.862 91.168 177.227 91.168ZM177.409 90.174C177.857 90.174 178.24 90.0573 178.557 89.824C178.884 89.5907 179.131 89.2873 179.299 88.914C179.467 88.5407 179.551 88.1487 179.551 87.738V87.724H177.773C177.083 87.724 176.593 87.8453 176.303 88.088C176.023 88.3213 175.883 88.6153 175.883 88.97C175.883 89.334 176.014 89.628 176.275 89.852C176.546 90.0667 176.924 90.174 177.409 90.174ZM182.491 91V80.92H183.667V91H182.491ZM185.595 91V80.92H186.771V91H185.595ZM189.454 94.08L191.176 90.328H190.77L188.012 84.056H189.286L191.582 89.46L194.018 84.056H195.236L190.686 94.08H189.454ZM203.305 91.168C202.642 91.168 202.054 91.0187 201.541 90.72C201.027 90.412 200.621 89.9873 200.323 89.446C200.033 88.9047 199.889 88.2653 199.889 87.528C199.889 86.8 200.033 86.1653 200.323 85.624C200.612 85.0733 201.013 84.6487 201.527 84.35C202.049 84.042 202.651 83.888 203.333 83.888C204.005 83.888 204.583 84.042 205.069 84.35C205.563 84.6487 205.941 85.0453 206.203 85.54C206.464 86.0347 206.595 86.5667 206.595 87.136C206.595 87.2387 206.59 87.3413 206.581 87.444C206.581 87.5467 206.581 87.6633 206.581 87.794H201.051C201.079 88.326 201.2 88.7693 201.415 89.124C201.639 89.4693 201.914 89.7307 202.241 89.908C202.577 90.0853 202.931 90.174 203.305 90.174C203.79 90.174 204.196 90.062 204.523 89.838C204.849 89.614 205.087 89.3107 205.237 88.928H206.399C206.212 89.572 205.853 90.1087 205.321 90.538C204.798 90.958 204.126 91.168 203.305 91.168ZM203.305 84.882C202.745 84.882 202.245 85.0547 201.807 85.4C201.377 85.736 201.13 86.2307 201.065 86.884H205.433C205.405 86.2587 205.19 85.7687 204.789 85.414C204.387 85.0593 203.893 84.882 203.305 84.882ZM208.154 91V84.056H209.218L209.288 85.302C209.512 84.8633 209.834 84.518 210.254 84.266C210.674 84.014 211.15 83.888 211.682 83.888C212.503 83.888 213.156 84.14 213.642 84.644C214.136 85.1387 214.383 85.904 214.383 86.94V91H213.208V87.066C213.208 85.6193 212.61 84.896 211.416 84.896C210.818 84.896 210.319 85.1153 209.918 85.554C209.526 85.9833 209.33 86.5993 209.33 87.402V91H208.154ZM218.909 91C218.275 91 217.775 90.846 217.411 90.538C217.047 90.23 216.865 89.6747 216.865 88.872V85.05H215.661V84.056H216.865L217.019 82.39H218.041V84.056H220.085V85.05H218.041V88.872C218.041 89.3107 218.13 89.6093 218.307 89.768C218.485 89.9173 218.797 89.992 219.245 89.992H219.973V91H218.909ZM224.51 91.168C223.847 91.168 223.259 91.0187 222.746 90.72C222.233 90.412 221.827 89.9873 221.528 89.446C221.239 88.9047 221.094 88.2653 221.094 87.528C221.094 86.8 221.239 86.1653 221.528 85.624C221.817 85.0733 222.219 84.6487 222.732 84.35C223.255 84.042 223.857 83.888 224.538 83.888C225.21 83.888 225.789 84.042 226.274 84.35C226.769 84.6487 227.147 85.0453 227.408 85.54C227.669 86.0347 227.8 86.5667 227.8 87.136C227.8 87.2387 227.795 87.3413 227.786 87.444C227.786 87.5467 227.786 87.6633 227.786 87.794H222.256C222.284 88.326 222.405 88.7693 222.62 89.124C222.844 89.4693 223.119 89.7307 223.446 89.908C223.782 90.0853 224.137 90.174 224.51 90.174C224.995 90.174 225.401 90.062 225.728 89.838C226.055 89.614 226.293 89.3107 226.442 88.928H227.604C227.417 89.572 227.058 90.1087 226.526 90.538C226.003 90.958 225.331 91.168 224.51 91.168ZM224.51 84.882C223.95 84.882 223.451 85.0547 223.012 85.4C222.583 85.736 222.335 86.2307 222.27 86.884H226.638C226.61 86.2587 226.395 85.7687 225.994 85.414C225.593 85.0593 225.098 84.882 224.51 84.882ZM229.359 91V84.056H230.423L230.521 85.386C230.735 84.9287 231.062 84.5647 231.501 84.294C231.939 84.0233 232.481 83.888 233.125 83.888V85.12H232.803C232.392 85.12 232.014 85.1947 231.669 85.344C231.323 85.484 231.048 85.7267 230.843 86.072C230.637 86.4173 230.535 86.8933 230.535 87.5V91H229.359ZM240.46 91.168C239.881 91.168 239.4 91.07 239.018 90.874C238.635 90.678 238.35 90.4167 238.164 90.09C237.977 89.7633 237.884 89.4087 237.884 89.026C237.884 88.3167 238.154 87.7707 238.696 87.388C239.237 87.0053 239.974 86.814 240.908 86.814H242.784V86.73C242.784 86.1233 242.625 85.666 242.308 85.358C241.99 85.0407 241.566 84.882 241.034 84.882C240.576 84.882 240.18 84.9987 239.844 85.232C239.517 85.456 239.312 85.7873 239.228 86.226H238.024C238.07 85.722 238.238 85.2973 238.528 84.952C238.826 84.6067 239.195 84.3453 239.634 84.168C240.072 83.9813 240.539 83.888 241.034 83.888C242.004 83.888 242.732 84.1493 243.218 84.672C243.712 85.1853 243.96 85.8713 243.96 86.73V91H242.91L242.84 89.754C242.644 90.146 242.354 90.482 241.972 90.762C241.598 91.0327 241.094 91.168 240.46 91.168ZM240.642 90.174C241.09 90.174 241.472 90.0573 241.79 89.824C242.116 89.5907 242.364 89.2873 242.532 88.914C242.7 88.5407 242.784 88.1487 242.784 87.738V87.724H241.006C240.315 87.724 239.825 87.8453 239.536 88.088C239.256 88.3213 239.116 88.6153 239.116 88.97C239.116 89.334 239.246 89.628 239.508 89.852C239.778 90.0667 240.156 90.174 240.642 90.174ZM245.724 91V84.056H246.788L246.858 85.302C247.082 84.8633 247.404 84.518 247.824 84.266C248.244 84.014 248.72 83.888 249.252 83.888C250.073 83.888 250.726 84.14 251.212 84.644C251.706 85.1387 251.954 85.904 251.954 86.94V91H250.778V87.066C250.778 85.6193 250.18 84.896 248.986 84.896C248.388 84.896 247.889 85.1153 247.488 85.554C247.096 85.9833 246.9 86.5993 246.9 87.402V91H245.724ZM254.286 94.08L256.008 90.328H255.602L252.844 84.056H254.118L256.414 89.46L258.85 84.056H260.068L255.518 94.08H254.286ZM265.015 94.08V84.056H266.079L266.191 85.204C266.415 84.868 266.732 84.5647 267.143 84.294C267.563 84.0233 268.095 83.888 268.739 83.888C269.429 83.888 270.031 84.0467 270.545 84.364C271.058 84.6813 271.455 85.1153 271.735 85.666C272.024 86.2167 272.169 86.842 272.169 87.542C272.169 88.242 272.024 88.8673 271.735 89.418C271.455 89.9593 271.053 90.3887 270.531 90.706C270.017 91.014 269.415 91.168 268.725 91.168C268.155 91.168 267.647 91.0513 267.199 90.818C266.76 90.5847 266.424 90.258 266.191 89.838V94.08H265.015ZM268.599 90.146C269.065 90.146 269.476 90.0387 269.831 89.824C270.185 89.6 270.465 89.292 270.671 88.9C270.876 88.508 270.979 88.0507 270.979 87.528C270.979 87.0053 270.876 86.548 270.671 86.156C270.465 85.764 270.185 85.4607 269.831 85.246C269.476 85.022 269.065 84.91 268.599 84.91C268.132 84.91 267.721 85.022 267.367 85.246C267.012 85.4607 266.732 85.764 266.527 86.156C266.321 86.548 266.219 87.0053 266.219 87.528C266.219 88.0507 266.321 88.508 266.527 88.9C266.732 89.292 267.012 89.6 267.367 89.824C267.721 90.0387 268.132 90.146 268.599 90.146ZM273.806 91V84.056H274.87L274.968 85.386C275.183 84.9287 275.509 84.5647 275.948 84.294C276.387 84.0233 276.928 83.888 277.572 83.888V85.12H277.25C276.839 85.12 276.461 85.1947 276.116 85.344C275.771 85.484 275.495 85.7267 275.29 86.072C275.085 86.4173 274.982 86.8933 274.982 87.5V91H273.806ZM281.754 91.168C281.091 91.168 280.503 91.0187 279.99 90.72C279.477 90.412 279.071 89.9873 278.772 89.446C278.483 88.9047 278.338 88.2653 278.338 87.528C278.338 86.8 278.483 86.1653 278.772 85.624C279.061 85.0733 279.463 84.6487 279.976 84.35C280.499 84.042 281.101 83.888 281.782 83.888C282.454 83.888 283.033 84.042 283.518 84.35C284.013 84.6487 284.391 85.0453 284.652 85.54C284.913 86.0347 285.044 86.5667 285.044 87.136C285.044 87.2387 285.039 87.3413 285.03 87.444C285.03 87.5467 285.03 87.6633 285.03 87.794H279.5C279.528 88.326 279.649 88.7693 279.864 89.124C280.088 89.4693 280.363 89.7307 280.69 89.908C281.026 90.0853 281.381 90.174 281.754 90.174C282.239 90.174 282.645 90.062 282.972 89.838C283.299 89.614 283.537 89.3107 283.686 88.928H284.848C284.661 89.572 284.302 90.1087 283.77 90.538C283.247 90.958 282.575 91.168 281.754 91.168ZM281.754 84.882C281.194 84.882 280.695 85.0547 280.256 85.4C279.827 85.736 279.579 86.2307 279.514 86.884H283.882C283.854 86.2587 283.639 85.7687 283.238 85.414C282.837 85.0593 282.342 84.882 281.754 84.882ZM286.981 91V85.05H285.931V84.056H286.981V82.852C286.981 82.18 287.149 81.69 287.485 81.382C287.821 81.074 288.311 80.92 288.955 80.92H289.655V81.928H289.137C288.782 81.928 288.53 82.0027 288.381 82.152C288.231 82.292 288.157 82.5347 288.157 82.88V84.056H292.469V91H291.293V85.05H288.157V91H286.981ZM291.895 82.726C291.671 82.726 291.479 82.6513 291.321 82.502C291.162 82.3433 291.083 82.1473 291.083 81.914C291.083 81.69 291.162 81.5033 291.321 81.354C291.479 81.2047 291.671 81.13 291.895 81.13C292.128 81.13 292.319 81.2047 292.469 81.354C292.627 81.5033 292.707 81.69 292.707 81.914C292.707 82.1473 292.627 82.3433 292.469 82.502C292.319 82.6513 292.128 82.726 291.895 82.726ZM293.846 91L296.254 87.528L293.846 84.056H295.12L297.066 86.926L299.026 84.056H300.286L297.878 87.528L300.286 91H299.026L297.066 88.13L295.12 91H293.846ZM16.966 111V104.056H18.03L18.1 105.302C18.324 104.863 18.646 104.518 19.066 104.266C19.486 104.014 19.962 103.888 20.494 103.888C21.3153 103.888 21.9687 104.14 22.454 104.644C22.9487 105.139 23.196 105.904 23.196 106.94V111H22.02V107.066C22.02 105.619 21.4227 104.896 20.228 104.896C19.6307 104.896 19.1313 105.115 18.73 105.554C18.338 105.983 18.142 106.599 18.142 107.402V111H16.966ZM27.5117 111.168C26.6904 111.168 26.0371 110.921 25.5517 110.426C25.0664 109.922 24.8237 109.152 24.8237 108.116V104.056H25.9997V107.99C25.9997 109.437 26.5924 110.16 27.7777 110.16C28.3844 110.16 28.8837 109.945 29.2757 109.516C29.6771 109.077 29.8777 108.457 29.8777 107.654V104.056H31.0537V111H29.9897L29.9057 109.754C29.6911 110.193 29.3691 110.538 28.9397 110.79C28.5197 111.042 28.0437 111.168 27.5117 111.168ZM32.9894 111V104.056H34.0534L34.1374 105.064C34.3614 104.691 34.6601 104.401 35.0334 104.196C35.4068 103.991 35.8268 103.888 36.2934 103.888C36.8441 103.888 37.3154 104 37.7074 104.224C38.1088 104.448 38.4168 104.789 38.6314 105.246C38.8741 104.826 39.2054 104.495 39.6254 104.252C40.0548 104.009 40.5168 103.888 41.0114 103.888C41.8421 103.888 42.5048 104.14 42.9994 104.644C43.4941 105.139 43.7414 105.904 43.7414 106.94V111H42.5794V107.066C42.5794 106.347 42.4348 105.806 42.1454 105.442C41.8561 105.078 41.4408 104.896 40.8994 104.896C40.3394 104.896 39.8728 105.115 39.4994 105.554C39.1354 105.983 38.9534 106.599 38.9534 107.402V111H37.7774V107.066C37.7774 106.347 37.6328 105.806 37.3434 105.442C37.0541 105.078 36.6388 104.896 36.0974 104.896C35.5468 104.896 35.0848 105.115 34.7114 105.554C34.3474 105.983 34.1654 106.599 34.1654 107.402V111H32.9894ZM49.2229 111.168C48.6535 111.168 48.1449 111.051 47.6969 110.818C47.2582 110.585 46.9222 110.258 46.6889 109.838L46.5769 111H45.5129V100.92H46.6889V105.204C46.9129 104.868 47.2302 104.565 47.6409 104.294C48.0609 104.023 48.5929 103.888 49.2369 103.888C49.9275 103.888 50.5295 104.047 51.0429 104.364C51.5562 104.681 51.9529 105.115 52.2329 105.666C52.5222 106.217 52.6669 106.842 52.6669 107.542C52.6669 108.242 52.5222 108.867 52.2329 109.418C51.9529 109.959 51.5515 110.389 51.0289 110.706C50.5155 111.014 49.9135 111.168 49.2229 111.168ZM49.0969 110.146C49.5635 110.146 49.9742 110.039 50.3289 109.824C50.6835 109.6 50.9635 109.292 51.1689 108.9C51.3742 108.508 51.4769 108.051 51.4769 107.528C51.4769 107.005 51.3742 106.548 51.1689 106.156C50.9635 105.764 50.6835 105.461 50.3289 105.246C49.9742 105.022 49.5635 104.91 49.0969 104.91C48.6302 104.91 48.2195 105.022 47.8649 105.246C47.5102 105.461 47.2302 105.764 47.0249 106.156C46.8195 106.548 46.7169 107.005 46.7169 107.528C46.7169 108.051 46.8195 108.508 47.0249 108.9C47.2302 109.292 47.5102 109.6 47.8649 109.824C48.2195 110.039 48.6302 110.146 49.0969 110.146ZM57.4259 111.168C56.7632 111.168 56.1752 111.019 55.6619 110.72C55.1486 110.412 54.7426 109.987 54.4439 109.446C54.1546 108.905 54.0099 108.265 54.0099 107.528C54.0099 106.8 54.1546 106.165 54.4439 105.624C54.7332 105.073 55.1346 104.649 55.6479 104.35C56.1706 104.042 56.7726 103.888 57.4539 103.888C58.1259 103.888 58.7046 104.042 59.1899 104.35C59.6846 104.649 60.0626 105.045 60.3239 105.54C60.5852 106.035 60.7159 106.567 60.7159 107.136C60.7159 107.239 60.7112 107.341 60.7019 107.444C60.7019 107.547 60.7019 107.663 60.7019 107.794H55.1719C55.1999 108.326 55.3212 108.769 55.5359 109.124C55.7599 109.469 56.0352 109.731 56.3619 109.908C56.6979 110.085 57.0526 110.174 57.4259 110.174C57.9112 110.174 58.3172 110.062 58.6439 109.838C58.9706 109.614 59.2086 109.311 59.3579 108.928H60.5199C60.3332 109.572 59.9739 110.109 59.4419 110.538C58.9192 110.958 58.2472 111.168 57.4259 111.168ZM57.4259 104.882C56.8659 104.882 56.3666 105.055 55.9279 105.4C55.4986 105.736 55.2512 106.231 55.1859 106.884H59.5539C59.5259 106.259 59.3112 105.769 58.9099 105.414C58.5086 105.059 58.0139 104.882 57.4259 104.882ZM62.2746 111V104.056H63.3386L63.4366 105.386C63.6513 104.929 63.9779 104.565 64.4166 104.294C64.8553 104.023 65.3966 103.888 66.0406 103.888V105.12H65.7186C65.3079 105.12 64.9299 105.195 64.5846 105.344C64.2393 105.484 63.9639 105.727 63.7586 106.072C63.5533 106.417 63.4506 106.893 63.4506 107.5V111H62.2746ZM67.206 111.07C66.9727 111.07 66.7767 110.995 66.618 110.846C66.4687 110.687 66.394 110.496 66.394 110.272C66.394 110.048 66.4687 109.861 66.618 109.712C66.7767 109.553 66.9727 109.474 67.206 109.474C67.43 109.474 67.6167 109.553 67.766 109.712C67.9247 109.861 68.004 110.048 68.004 110.272C68.004 110.496 67.9247 110.687 67.766 110.846C67.6167 110.995 67.43 111.07 67.206 111.07Z" fill="#46474F"/>
<path d="M146 131C146 131 176.252 131 173.866 131C171.48 131 169.093 131 165.514 134C163.139 135.99 157.089 141.061 153.285 144.249C151.983 145.34 150.003 144.413 150.003 142.714V139C150.003 139 150.003 135.5 150.003 133C150.003 131 146 131 146 131Z" fill="#F8FAFC"/>
</svg>
